<?xml version="1.0" encoding="UTF-8"?>
<!DOCTYPE svg PUBLIC "-//W3C//DTD SVG 1.1//EN" "http://www.w3.org/Graphics/SVG/1.1/DTD/svg11.dtd">
<svg xmlns="http://www.w3.org/2000/svg" version="1.1" width="1137px" height="1200px" style="shape-rendering:geometricPrecision; text-rendering:geometricPrecision; image-rendering:optimizeQuality; fill-rule:evenodd; clip-rule:evenodd" xmlns:xlink="http://www.w3.org/1999/xlink">
<g><path style="opacity:0.999" fill="#fe0000" d="M 539.5,-0.5 C 544.5,-0.5 549.5,-0.5 554.5,-0.5C 618.264,3.54869 670.93,29.7154 712.5,78C 775.861,100.452 834.194,131.785 887.5,172C 940.125,215.875 984.958,266.375 1022,323.5C 1030.93,338.357 1039.1,353.691 1046.5,369.5C 1053.49,369.658 1057.49,373.158 1058.5,380C 1057.67,384.126 1057.34,388.293 1057.5,392.5C 1059.2,392.66 1060.87,392.494 1062.5,392C 1067.08,387.275 1071.25,387.441 1075,392.5C 1075.19,396.378 1075.35,400.044 1075.5,403.5C 1075.67,404.492 1075.34,405.158 1074.5,405.5C 1072.32,410.196 1069.98,415.529 1067.5,421.5C 1067.62,422.107 1067.96,422.44 1068.5,422.5C 1068.5,423.5 1068.5,424.5 1068.5,425.5C 1067.9,425.735 1067.57,426.235 1067.5,427C 1071.54,440.623 1075.87,453.456 1080.5,465.5C 1081.34,465.842 1081.67,466.508 1081.5,467.5C 1080.9,467.735 1080.57,468.235 1080.5,469C 1084.22,482.366 1087.38,495.866 1090,509.5C 1090.28,523.681 1090.44,537.681 1090.5,551.5C 1090.5,552.167 1090.17,552.5 1089.5,552.5C 1088.07,561.072 1086.4,569.738 1084.5,578.5C 1084.54,579.416 1084.88,580.083 1085.5,580.5C 1085.67,581.492 1085.34,582.158 1084.5,582.5C 1082.63,586.219 1080.63,590.552 1078.5,595.5C 1077.68,593.031 1077.18,590.365 1077,587.5C 1076.62,588.056 1076.12,588.389 1075.5,588.5C 1075.5,587.833 1075.5,587.167 1075.5,586.5C 1074.92,557.534 1072.42,528.534 1068,499.5C 1067.62,500.056 1067.12,500.389 1066.5,500.5C 1066.5,499.5 1066.5,498.5 1066.5,497.5C 1066.44,485.79 1064.61,474.124 1061,462.5C 1060.62,463.056 1060.12,463.389 1059.5,463.5C 1059.5,462.833 1059.5,462.167 1059.5,461.5C 1060.1,461.265 1060.43,460.765 1060.5,460C 1058.38,452.98 1055.88,446.147 1053,439.5C 1052.01,440.43 1051.51,441.596 1051.5,443C 1054.59,455.852 1057.75,468.685 1061,481.5C 1061.38,480.944 1061.88,480.611 1062.5,480.5C 1062.5,481.167 1062.5,481.833 1062.5,482.5C 1061.43,483.251 1061.26,484.251 1062,485.5C 1062.38,484.944 1062.88,484.611 1063.5,484.5C 1063.5,485.167 1063.5,485.833 1063.5,486.5C 1062.71,487.609 1062.21,488.942 1062,490.5C 1061.67,490.167 1061.33,489.833 1061,489.5C 1057.31,476.097 1052.64,463.097 1047,450.5C 1042.19,457.466 1039.02,465.133 1037.5,473.5C 1037.54,474.416 1037.88,475.083 1038.5,475.5C 1038.67,476.492 1038.34,477.158 1037.5,477.5C 1035.41,486.473 1033.24,496.139 1031,506.5C 1029.99,513.324 1032.83,516.324 1039.5,515.5C 1041.41,508.519 1044.74,502.352 1049.5,497C 1052.98,495.15 1056.14,495.65 1059,498.5C 1063.8,514.907 1063.63,531.241 1058.5,547.5C 1058.62,548.107 1058.96,548.44 1059.5,548.5C 1059.67,549.492 1059.34,550.158 1058.5,550.5C 1055.11,555.743 1050.44,560.576 1044.5,565C 1044.73,565.399 1045.06,565.565 1045.5,565.5C 1045.17,566.5 1044.5,567.167 1043.5,567.5C 1043.1,566.475 1042.44,566.308 1041.5,567C 1035.95,570.376 1030.95,573.542 1026.5,576.5C 1026.16,577.338 1025.49,577.672 1024.5,577.5C 1024.26,576.903 1023.76,576.57 1023,576.5C 1021.5,577 1020,577.5 1018.5,578C 1019.06,578.383 1019.39,578.883 1019.5,579.5C 1018.83,579.5 1018.17,579.5 1017.5,579.5C 999.134,579.849 980.967,577.516 963,572.5C 962.235,572.57 961.735,572.903 961.5,573.5C 960.508,573.672 959.842,573.338 959.5,572.5C 941.499,566.101 922.832,559.601 903.5,553C 892.151,548.91 880.484,546.91 868.5,547C 862.141,552.552 857.475,559.385 854.5,567.5C 854.624,568.107 854.957,568.44 855.5,568.5C 855.672,569.492 855.338,570.158 854.5,570.5C 854.565,570.062 854.399,569.728 854,569.5C 852.702,570.946 852.535,572.279 853.5,573.5C 853.672,574.492 853.338,575.158 852.5,575.5C 850.533,577.523 849.2,580.523 848.5,584.5C 848.624,585.107 848.957,585.44 849.5,585.5C 849.5,586.167 849.5,586.833 849.5,587.5C 848.883,587.389 848.383,587.056 848,586.5C 845.578,595.689 843.078,604.855 840.5,614C 840.57,614.765 840.903,615.265 841.5,615.5C 841.5,616.167 841.5,616.833 841.5,617.5C 840.883,617.389 840.383,617.056 840,616.5C 839.166,619.172 838.332,621.839 837.5,624.5C 837.624,625.107 837.957,625.44 838.5,625.5C 838.5,626.167 838.5,626.833 838.5,627.5C 837.883,627.389 837.383,627.056 837,626.5C 830.45,641.268 822.117,654.935 812,667.5C 811.308,668.437 811.475,669.103 812.5,669.5C 812.167,670.167 811.833,670.833 811.5,671.5C 810.603,670.402 809.77,670.402 809,671.5C 803.635,678.893 799.302,686.893 796,695.5C 795.26,696.749 795.427,697.749 796.5,698.5C 796.672,699.492 796.338,700.158 795.5,700.5C 794.357,704.069 794.19,708.403 795,713.5C 817.382,741.547 839.382,769.881 861,798.5C 871.062,813.455 880.229,828.955 888.5,845C 892.68,847.706 897.013,848.039 901.5,846C 900.944,845.617 900.611,845.117 900.5,844.5C 901.167,844.5 901.833,844.5 902.5,844.5C 902.56,845.043 902.893,845.376 903.5,845.5C 913.646,839.864 922.479,832.53 930,823.5C 948,799.5 966,775.5 984,751.5C 991.682,742.082 1001.18,735.248 1012.5,731C 1011.94,730.617 1011.61,730.117 1011.5,729.5C 1012.17,729.5 1012.83,729.5 1013.5,729.5C 1022.5,729.5 1031.5,729.5 1040.5,729.5C 1041.17,729.5 1041.83,729.5 1042.5,729.5C 1042.39,730.117 1042.06,730.617 1041.5,731C 1042.79,731.49 1044.13,731.657 1045.5,731.5C 1056.75,686.152 1063.75,640.152 1066.5,593.5C 1069.95,633.827 1067.62,673.827 1059.5,713.5C 1059.54,714.416 1059.88,715.083 1060.5,715.5C 1060.5,716.167 1060.5,716.833 1060.5,717.5C 1059.88,717.389 1059.38,717.056 1059,716.5C 1058.5,718.5 1058,720.5 1057.5,722.5C 1057.54,723.416 1057.88,724.083 1058.5,724.5C 1058.5,725.167 1058.5,725.833 1058.5,726.5C 1057.88,726.389 1057.38,726.056 1057,725.5C 1055.99,728.857 1055.32,732.191 1055,735.5C 1062.31,739.659 1069.31,744.325 1076,749.5C 1086.58,765.123 1092.25,782.456 1093,801.5C 1093.67,807.167 1093.67,812.833 1093,818.5C 1091.83,819.667 1090.67,820.833 1089.5,822C 1089.73,822.399 1090.06,822.565 1090.5,822.5C 1090.16,823.338 1089.49,823.672 1088.5,823.5C 1082.84,823.077 1078.34,820.41 1075,815.5C 1072.17,809.83 1068.83,804.497 1065,799.5C 1062,801.167 1059.67,803.5 1058,806.5C 1057.33,808.167 1057.33,809.833 1058,811.5C 1062.22,821.844 1066.39,831.51 1070.5,840.5C 1071.34,840.842 1071.67,841.508 1071.5,842.5C 1072.94,850.648 1075.78,858.648 1080,866.5C 1088.03,877.026 1095.86,887.693 1103.5,898.5C 1109.09,901.21 1114.26,904.544 1119,908.5C 1125.21,917.59 1130.38,927.256 1134.5,937.5C 1136.22,942.08 1135.55,946.246 1132.5,950C 1126.77,950.259 1121.11,949.759 1115.5,948.5C 1116.2,954.621 1117.54,960.621 1119.5,966.5C 1119.42,971.084 1117.42,974.584 1113.5,977C 1108.21,977.788 1103.05,977.288 1098,975.5C 1097.24,975.57 1096.74,975.903 1096.5,976.5C 1095.5,976.5 1094.5,976.5 1093.5,976.5C 1094.6,974.908 1093.93,974.075 1091.5,974C 1086.46,972.991 1081.46,971.824 1076.5,970.5C 1075.58,970.543 1074.92,970.876 1074.5,971.5C 1073.83,971.5 1073.17,971.5 1072.5,971.5C 1072.61,970.883 1072.94,970.383 1073.5,970C 1071.64,969.578 1069.81,969.078 1068,968.5C 1067.24,968.57 1066.74,968.903 1066.5,969.5C 1065.83,969.5 1065.17,969.5 1064.5,969.5C 1064.61,968.883 1064.94,968.383 1065.5,968C 1057.44,965.869 1049.44,963.536 1041.5,961C 1036.49,958.499 1031.83,955.499 1027.5,952C 1017.8,939.437 1008.97,926.27 1001,912.5C 982.978,943.22 962.978,972.554 941,1000.5C 932.326,1011.85 921.826,1021.01 909.5,1028C 902.318,1029.84 895.318,1029.17 888.5,1026C 882.39,1023.78 876.723,1020.78 871.5,1017C 870.5,1016.33 869.5,1016.33 868.5,1017C 853.004,1032.5 836.338,1046.5 818.5,1059C 791.69,1076.58 764.023,1092.91 735.5,1108C 718.54,1131.98 697.54,1151.65 672.5,1167C 660.741,1173.37 649.408,1179.2 638.5,1184.5C 638.158,1185.34 637.492,1185.67 636.5,1185.5C 636.44,1184.96 636.107,1184.62 635.5,1184.5C 630.204,1186.43 624.871,1188.27 619.5,1190C 620.056,1190.38 620.389,1190.88 620.5,1191.5C 619.833,1191.5 619.167,1191.5 618.5,1191.5C 618.265,1190.9 617.765,1190.57 617,1190.5C 588.623,1198.42 559.789,1200.59 530.5,1197C 514.815,1194.73 499.315,1191.56 484,1187.5C 483.235,1187.57 482.735,1187.9 482.5,1188.5C 481.833,1188.5 481.167,1188.5 480.5,1188.5C 480.611,1187.88 480.944,1187.38 481.5,1187C 472.354,1184.63 463.354,1181.8 454.5,1178.5C 453.893,1178.62 453.56,1178.96 453.5,1179.5C 452.508,1179.67 451.842,1179.34 451.5,1178.5C 447.983,1176.25 443.65,1174.25 438.5,1172.5C 437.893,1172.62 437.56,1172.96 437.5,1173.5C 436.508,1173.67 435.842,1173.34 435.5,1172.5C 404.176,1159.14 374.509,1141.97 346.5,1121C 323.714,1103.22 304.047,1082.55 287.5,1059C 283.361,1056.52 279.528,1053.69 276,1050.5C 275.617,1051.06 275.117,1051.39 274.5,1051.5C 274.5,1050.5 274.5,1049.5 274.5,1048.5C 273.833,1048.5 273.167,1048.5 272.5,1048.5C 220.127,1018.77 172.627,981.439 130,936.5C 101.848,905.644 78.6809,871.978 60.5,835.5C 59.6618,835.158 59.3284,834.492 59.5,833.5C 60.0431,833.44 60.3764,833.107 60.5,832.5C 56.7685,823.993 52.7685,816.326 48.5,809.5C 47.6618,809.158 47.3284,808.492 47.5,807.5C 48.0431,807.44 48.3764,807.107 48.5,806.5C 47.4649,803.581 46.1316,801.581 44.5,800.5C 43.6618,800.158 43.3284,799.492 43.5,798.5C 44.0431,798.44 44.3764,798.107 44.5,797.5C 43.8065,795.188 42.8065,793.854 41.5,793.5C 40.6618,793.158 40.3284,792.492 40.5,791.5C 41.0431,791.44 41.3764,791.107 41.5,790.5C 40.8065,788.188 39.8065,786.854 38.5,786.5C 37.6618,786.158 37.3284,785.492 37.5,784.5C 38.4646,783.279 38.298,781.946 37,780.5C 36.6012,780.728 36.4346,781.062 36.5,781.5C 35.6618,781.158 35.3284,780.492 35.5,779.5C 36.0431,779.44 36.3764,779.107 36.5,778.5C 35.3906,776.615 34.5573,774.615 34,772.5C 29.4801,766.132 26.3135,759.799 24.5,753.5C 23.6618,753.158 23.3284,752.492 23.5,751.5C 24.0967,751.265 24.4301,750.765 24.5,750C 22.433,743.232 20.5996,736.399 19,729.5C 18.6174,730.056 18.1174,730.389 17.5,730.5C 17.5,729.833 17.5,729.167 17.5,728.5C 18.1239,728.083 18.4573,727.416 18.5,726.5C 17.6667,723.167 16.8333,719.833 16,716.5C 15.6174,717.056 15.1174,717.389 14.5,717.5C 14.5,716.5 14.5,715.5 14.5,714.5C 15.1239,714.083 15.4573,713.416 15.5,712.5C 15,710.5 14.5,708.5 14,706.5C 13.6174,707.056 13.1174,707.389 12.5,707.5C 12.5,706.833 12.5,706.167 12.5,705.5C 13.1386,704.903 13.472,704.07 13.5,703C 10.0637,685.549 6.89707,668.049 4,650.5C 3.61742,651.056 3.11742,651.389 2.5,651.5C 2.5,650.833 2.5,650.167 2.5,649.5C 3.13863,648.903 3.47196,648.07 3.5,647C 3,644.5 2.5,642 2,639.5C 1.61742,640.056 1.11742,640.389 0.5,640.5C 0.5,639.167 0.5,637.833 0.5,636.5C 1.13863,635.903 1.47196,635.07 1.5,634C 1.08768,630.973 0.421017,628.14 -0.5,625.5C -0.5,624.833 -0.5,624.167 -0.5,623.5C 1.61023,592.545 4.7769,561.545 9,530.5C 12.2266,509.262 16.56,488.262 22,467.5C 22.7189,443.851 26.8856,420.851 34.5,398.5C 33.4793,397.099 32.4793,395.765 31.5,394.5C 31.3284,393.508 31.6618,392.842 32.5,392.5C 44.0953,367.619 56.262,342.286 69,316.5C 86.5106,283.818 108.177,254.151 134,227.5C 139.947,218.553 146.28,209.886 153,201.5C 169.148,186.505 185.981,172.505 203.5,159.5C 205.512,160.014 207.512,160.18 209.5,160C 227.848,146.015 247.515,134.015 268.5,124C 270.029,119.799 272.696,116.466 276.5,114C 303.38,97.7355 330.714,83.5688 358.5,71.5C 358.842,70.6618 359.508,70.3284 360.5,70.5C 360.56,71.0431 360.893,71.3764 361.5,71.5C 363.295,70.7349 365.128,70.0682 367,69.5C 368.582,71.0288 370.415,71.5288 372.5,71C 404.31,46.1217 438.644,26.6217 475.5,12.5C 475.842,11.6618 476.508,11.3284 477.5,11.5C 477.56,12.0431 477.893,12.3764 478.5,12.5C 498.449,5.71196 518.782,1.37862 539.5,-0.5 Z M 502.5,79.5 C 503.833,79.5 505.167,79.5 506.5,79.5C 517.838,79.3335 529.172,79.5001 540.5,80C 551.193,81.3936 561.86,82.8936 572.5,84.5C 572.842,85.3382 573.508,85.6716 574.5,85.5C 577.443,86.3674 580.443,87.3674 583.5,88.5C 584.167,88.5 584.833,88.5 585.5,88.5C 628.25,103.213 659.583,130.879 679.5,171.5C 679.328,172.492 679.662,173.158 680.5,173.5C 680.66,175.153 681.326,176.486 682.5,177.5C 682.5,178.167 682.5,178.833 682.5,179.5C 684.648,184.623 686.981,189.623 689.5,194.5C 689.5,195.167 689.5,195.833 689.5,196.5C 699.014,222.673 700.681,249.339 694.5,276.5C 694.5,277.167 694.5,277.833 694.5,278.5C 693.5,281.167 692.5,283.833 691.5,286.5C 691.5,287.167 691.5,287.833 691.5,288.5C 678.73,320.145 659.063,346.978 632.5,369C 594.889,399.5 553.222,423 507.5,439.5C 506.508,439.328 505.842,439.662 505.5,440.5C 503.901,440.232 502.568,440.566 501.5,441.5C 500.833,441.5 500.167,441.5 499.5,441.5C 498.833,441.5 498.5,441.833 498.5,442.5C 497.5,442.5 496.5,442.5 495.5,442.5C 488.5,445.167 481.5,445.167 474.5,442.5C 473.833,442.5 473.167,442.5 472.5,442.5C 464.353,439.683 459.353,434.016 457.5,425.5C 459.728,418.715 462.728,412.382 466.5,406.5C 466.5,405.833 466.5,405.167 466.5,404.5C 467.338,404.158 467.672,403.492 467.5,402.5C 467.5,401.833 467.5,401.167 467.5,400.5C 469.786,379.893 466.786,360.226 458.5,341.5C 458.672,340.508 458.338,339.842 457.5,339.5C 454.021,327.575 447.688,317.408 438.5,309C 432.313,304.57 425.646,303.404 418.5,305.5C 417.508,305.328 416.842,305.662 416.5,306.5C 412.328,308.158 408.828,310.825 406,314.5C 403.829,318.844 401.163,322.844 398,326.5C 383.135,311.46 365.635,300.793 345.5,294.5C 345.158,293.662 344.492,293.328 343.5,293.5C 341.972,292.691 340.306,292.024 338.5,291.5C 337.833,291.5 337.167,291.5 336.5,291.5C 316.285,285.852 296.285,286.518 276.5,293.5C 275.833,293.5 275.167,293.5 274.5,293.5C 232.032,310.801 201.532,340.468 183,382.5C 174.697,404.95 173.53,427.616 179.5,450.5C 179.5,451.167 179.5,451.833 179.5,452.5C 180.024,454.306 180.691,455.972 181.5,457.5C 181.328,458.492 181.662,459.158 182.5,459.5C 185.475,470.617 190.475,480.784 197.5,490C 188.208,493.891 180.041,499.391 173,506.5C 166.931,520.231 169.431,532.231 180.5,542.5C 186.678,548.746 193.678,553.746 201.5,557.5C 201.842,558.338 202.508,558.672 203.5,558.5C 203.842,559.338 204.508,559.672 205.5,559.5C 205.842,560.338 206.508,560.672 207.5,560.5C 220.349,567.151 234.016,569.485 248.5,567.5C 249.167,567.5 249.833,567.5 250.5,567.5C 253.926,566.848 257.092,565.515 260,563.5C 268.02,570.256 276.853,575.59 286.5,579.5C 286.842,580.338 287.508,580.672 288.5,580.5C 289.997,581.306 291.664,581.972 293.5,582.5C 294.583,583.365 294.749,584.365 294,585.5C 274.121,622.617 258.621,661.617 247.5,702.5C 247.5,703.167 247.5,703.833 247.5,704.5C 239.195,735.627 233.862,767.293 231.5,799.5C 230.568,821.147 230.235,842.814 230.5,864.5C 230.5,865.833 230.5,867.167 230.5,868.5C 231.587,887.897 233.254,907.23 235.5,926.5C 235.5,927.167 235.5,927.833 235.5,928.5C 236.681,937.297 238.347,945.964 240.5,954.5C 240.5,955.167 240.5,955.833 240.5,956.5C 240.263,957.791 240.596,958.791 241.5,959.5C 241.5,959.833 241.5,960.167 241.5,960.5C 242.048,962.626 242.715,964.626 243.5,966.5C 243.5,967.167 243.5,967.833 243.5,968.5C 244.36,971.632 245.36,974.632 246.5,977.5C 246.5,978.167 246.5,978.833 246.5,979.5C 247.024,981.306 247.691,982.972 248.5,984.5C 248.5,984.833 248.5,985.167 248.5,985.5C 249.673,988.148 250.506,990.815 251,993.5C 232.602,982.548 215.769,969.548 200.5,954.5C 200.167,953.5 199.5,952.833 198.5,952.5C 141.613,900.036 98.6134,838.036 69.5,766.5C 69.5,765.833 69.5,765.167 69.5,764.5C 68.3611,761.082 67.0277,757.749 65.5,754.5C 65.5,753.833 65.5,753.167 65.5,752.5C 62.3355,744.143 59.3355,735.81 56.5,727.5C 56.5,726.833 56.5,726.167 56.5,725.5C 55.1146,721.424 53.7812,717.424 52.5,713.5C 52.5,712.833 52.5,712.167 52.5,711.5C 52.1667,710.833 51.8333,710.167 51.5,709.5C 51.5,708.833 51.5,708.167 51.5,707.5C 44.8441,681.301 41.0108,654.634 40,627.5C 39.5001,611.837 39.3334,596.17 39.5,580.5C 40.8433,543.754 43.3433,507.087 47,470.5C 48.0614,465.79 49.2281,461.123 50.5,456.5C 50.5,455.833 50.5,455.167 50.5,454.5C 51.3382,454.158 51.6716,453.492 51.5,452.5C 51.5,451.833 51.5,451.167 51.5,450.5C 53.8078,443.914 56.1411,437.247 58.5,430.5C 58.5,429.833 58.5,429.167 58.5,428.5C 60.4056,425.017 62.0722,421.35 63.5,417.5C 63.5,416.833 63.5,416.167 63.5,415.5C 66.3063,409.085 69.3063,402.751 72.5,396.5C 72.5,395.833 72.5,395.167 72.5,394.5C 75.5124,389.809 78.0124,384.809 80,379.5C 82.6667,378.167 84.6667,376.167 86,373.5C 97,354.5 108,335.5 119,316.5C 126.02,305.783 133.52,295.45 141.5,285.5C 141.833,284.833 142.167,284.167 142.5,283.5C 144.878,281.122 146.878,278.455 148.5,275.5C 149.5,275.167 150.167,274.5 150.5,273.5C 154.073,269.356 157.406,265.022 160.5,260.5C 161.5,260.167 162.167,259.5 162.5,258.5C 163.5,257.5 164.5,256.5 165.5,255.5C 165.833,254.833 166.167,254.167 166.5,253.5C 177.806,241.527 189.473,229.86 201.5,218.5C 206.5,214.167 211.167,209.5 215.5,204.5C 218.5,202.167 221.167,199.5 223.5,196.5C 229.967,189.863 236.3,183.03 242.5,176C 253.468,166.512 265.468,158.512 278.5,152C 293.166,144.499 307.833,137.332 322.5,130.5C 323.492,130.672 324.158,130.338 324.5,129.5C 327.573,128.801 330.573,127.801 333.5,126.5C 340.396,121.891 347.396,117.558 354.5,113.5C 355.492,113.672 356.158,113.338 356.5,112.5C 363.31,110.012 369.977,107.345 376.5,104.5C 377.167,104.5 377.833,104.5 378.5,104.5C 383.248,102.808 387.914,101.142 392.5,99.5C 393.167,99.5 393.833,99.5 394.5,99.5C 416.697,92.3266 439.364,86.9933 462.5,83.5C 463.167,83.5 463.833,83.5 464.5,83.5C 477.114,81.7471 489.781,80.4137 502.5,79.5 Z M 750.5,116.5 C 750.833,116.5 751.167,116.5 751.5,116.5C 793.099,136.468 833.099,159.302 871.5,185C 907.361,211.527 938.527,242.694 965,278.5C 973.535,289.736 981.702,301.236 989.5,313C 988.805,316.728 989.472,320.228 991.5,323.5C 991.5,324.167 991.5,324.833 991.5,325.5C 992.167,327.167 992.833,328.833 993.5,330.5C 993.5,331.167 993.5,331.833 993.5,332.5C 995.149,334.752 997.315,336.419 1000,337.5C 1003.94,345.719 1008.11,353.719 1012.5,361.5C 1012.33,362.492 1012.66,363.158 1013.5,363.5C 1014.74,368.238 1016.74,372.571 1019.5,376.5C 1019.5,377.167 1019.5,377.833 1019.5,378.5C 1019.61,379.117 1019.94,379.617 1020.5,380C 1008.69,384.714 997.36,390.38 986.5,397C 979.617,404.265 974.95,412.765 972.5,422.5C 971.662,422.842 971.328,423.508 971.5,424.5C 969.868,427.673 968.535,431.006 967.5,434.5C 966.833,434.5 966.5,434.833 966.5,435.5C 965.262,437.214 964.595,439.214 964.5,441.5C 963.662,441.842 963.328,442.508 963.5,443.5C 957.71,454.716 954.21,466.716 953,479.5C 945.64,476.402 938.14,473.735 930.5,471.5C 929.833,471.5 929.167,471.5 928.5,471.5C 925.37,469.873 922.037,468.54 918.5,467.5C 917.833,467.5 917.167,467.5 916.5,467.5C 915.432,466.566 914.099,466.232 912.5,466.5C 912.158,465.662 911.492,465.328 910.5,465.5C 909.329,464.655 907.995,463.989 906.5,463.5C 905.833,463.5 905.167,463.5 904.5,463.5C 903.432,462.566 902.099,462.232 900.5,462.5C 900.158,461.662 899.492,461.328 898.5,461.5C 896.021,460.205 893.354,459.205 890.5,458.5C 890.167,458.5 889.833,458.5 889.5,458.5C 886.919,457.512 884.252,456.512 881.5,455.5C 880.833,455.5 880.167,455.5 879.5,455.5C 875.812,454.501 872.145,453.168 868.5,451.5C 867.833,451.5 867.167,451.5 866.5,451.5C 864.972,450.691 863.306,450.024 861.5,449.5C 860.833,449.5 860.167,449.5 859.5,449.5C 859.158,448.662 858.492,448.328 857.5,448.5C 856.833,448.5 856.167,448.5 855.5,448.5C 851.251,447.197 846.918,445.864 842.5,444.5C 841.833,444.5 841.167,444.5 840.5,444.5C 838.626,443.715 836.626,443.048 834.5,442.5C 833.833,442.5 833.167,442.5 832.5,442.5C 829.539,441.677 826.539,441.01 823.5,440.5C 822.833,440.5 822.167,440.5 821.5,440.5C 814.318,439.998 807.318,440.665 800.5,442.5C 799.833,442.5 799.167,442.5 798.5,442.5C 790.91,445.211 784.41,449.544 779,455.5C 762.883,475.885 745.716,495.385 727.5,514C 715.955,524.592 703.289,533.425 689.5,540.5C 688.5,540.5 687.5,540.5 686.5,540.5C 685.833,540.5 685.5,540.833 685.5,541.5C 684.833,541.5 684.167,541.5 683.5,541.5C 664.766,544.3 651.1,537.3 642.5,520.5C 642.5,519.833 642.5,519.167 642.5,518.5C 640.895,509.922 642.895,502.256 648.5,495.5C 648.833,494.833 649.167,494.167 649.5,493.5C 655.529,486.326 662.529,480.326 670.5,475.5C 671.167,475.167 671.833,474.833 672.5,474.5C 675.205,472.488 677.872,470.488 680.5,468.5C 681.167,468.167 681.833,467.833 682.5,467.5C 684.191,466.136 685.858,464.803 687.5,463.5C 688.5,463.167 689.167,462.5 689.5,461.5C 690.492,461.672 691.158,461.338 691.5,460.5C 692.167,460.167 692.833,459.833 693.5,459.5C 694.5,458.5 695.5,457.5 696.5,456.5C 697.5,455.833 698.5,455.167 699.5,454.5C 700.833,453.833 701.833,452.833 702.5,451.5C 703.5,450.833 704.5,450.167 705.5,449.5C 707.36,448.061 709.027,446.395 710.5,444.5C 716.167,439.5 721.5,434.167 726.5,428.5C 731.51,423.488 736.177,418.155 740.5,412.5C 740.833,411.833 741.167,411.167 741.5,410.5C 754.966,392.827 765.632,373.493 773.5,352.5C 773.5,351.833 773.5,351.167 773.5,350.5C 774.945,348.429 775.945,346.096 776.5,343.5C 776.5,342.833 776.5,342.167 776.5,341.5C 780.242,330.861 782.909,319.861 784.5,308.5C 784.5,307.833 784.5,307.167 784.5,306.5C 789.161,274.726 788.327,243.059 782,211.5C 781.302,208.996 780.469,206.663 779.5,204.5C 779.5,203.833 779.5,203.167 779.5,202.5C 778.976,200.694 778.309,199.028 777.5,197.5C 777.5,196.833 777.5,196.167 777.5,195.5C 768.288,166.301 756.121,138.635 741,112.5C 744.12,113.977 747.286,115.311 750.5,116.5 Z M 1057.5,457.5 C 1058.17,458.833 1058.83,460.167 1059.5,461.5C 1059.5,462.167 1059.5,462.833 1059.5,463.5C 1061.78,469.951 1063.11,476.618 1063.5,483.5C 1062.83,483.5 1062.5,483.167 1062.5,482.5C 1062.5,481.833 1062.5,481.167 1062.5,480.5C 1060.21,472.974 1058.55,465.307 1057.5,457.5 Z M 1063.5,483.5 C 1064.78,485.608 1065.28,487.942 1065,490.5C 1064.21,489.255 1063.71,487.922 1063.5,486.5C 1063.5,485.833 1063.5,485.167 1063.5,484.5C 1063.5,484.167 1063.5,483.833 1063.5,483.5 Z M 534.5,849.5 C 534.842,850.338 535.508,850.672 536.5,850.5C 539.554,852.355 542.888,853.688 546.5,854.5C 547.167,854.5 547.833,854.5 548.5,854.5C 564.19,859.816 580.357,862.15 597,861.5C 613.745,861.809 630.245,859.976 646.5,856C 664.53,853.682 681.197,857.348 696.5,867C 712.388,881.061 728.054,895.228 743.5,909.5C 764.99,929.156 786.323,948.989 807.5,969C 819.686,979.687 832.02,990.187 844.5,1000.5C 838.343,1006.49 832.009,1012.32 825.5,1018C 813.245,1025.91 801.245,1034.25 789.5,1043C 772.833,1053.67 756.167,1064.33 739.5,1075C 736.537,1076.96 733.871,1079.29 731.5,1082C 724.308,1084.87 717.641,1088.37 711.5,1092.5C 710.833,1092.5 710.167,1092.5 709.5,1092.5C 707.085,1093.31 704.751,1094.31 702.5,1095.5C 701.833,1095.5 701.167,1095.5 700.5,1095.5C 699.167,1096.17 697.833,1096.83 696.5,1097.5C 695.833,1097.5 695.167,1097.5 694.5,1097.5C 688.076,1099.51 681.743,1101.51 675.5,1103.5C 674.833,1103.5 674.167,1103.5 673.5,1103.5C 672.508,1103.33 671.842,1103.66 671.5,1104.5C 670.833,1104.5 670.167,1104.5 669.5,1104.5C 618.76,1118.59 567.426,1121.26 515.5,1112.5C 514.833,1112.5 514.167,1112.5 513.5,1112.5C 512.391,1112.44 511.391,1112.11 510.5,1111.5C 509.833,1111.5 509.167,1111.5 508.5,1111.5C 504.209,1110.34 499.875,1109.01 495.5,1107.5C 494.833,1107.5 494.167,1107.5 493.5,1107.5C 490.317,1105.99 486.984,1104.66 483.5,1103.5C 482.833,1103.5 482.167,1103.5 481.5,1103.5C 420.985,1079.32 381.318,1035.98 362.5,973.5C 362.5,972.833 362.5,972.167 362.5,971.5C 351.187,928.607 349.52,885.274 357.5,841.5C 357.5,840.833 357.5,840.167 357.5,839.5C 358.848,831.737 360.515,824.07 362.5,816.5C 362.5,815.833 362.5,815.167 362.5,814.5C 363.787,811.302 364.453,807.969 364.5,804.5C 365.338,804.158 365.672,803.492 365.5,802.5C 366.309,800.972 366.976,799.306 367.5,797.5C 367.5,796.833 367.5,796.167 367.5,795.5C 369.46,790.229 371.46,784.896 373.5,779.5C 373.5,778.833 373.5,778.167 373.5,777.5C 375.02,775.11 376.02,772.443 376.5,769.5C 377.338,769.158 377.672,768.492 377.5,767.5C 382.562,757.712 387.895,748.046 393.5,738.5C 395.833,736.5 398.167,734.5 400.5,732.5C 405.124,730.285 409.791,730.452 414.5,733C 419.621,736.453 424.454,740.286 429,744.5C 448.059,767.624 466.392,791.291 484,815.5C 491.912,825.414 501.078,833.914 511.5,841C 518.781,844.903 526.447,847.736 534.5,849.5 Z"/></g>
<g><path style="opacity:0.239" fill="#5d0101" d="M 525.5,-0.5 C 530.167,-0.5 534.833,-0.5 539.5,-0.5C 518.782,1.37862 498.449,5.71196 478.5,12.5C 477.893,12.3764 477.56,12.0431 477.5,11.5C 493.235,6.0247 509.235,2.0247 525.5,-0.5 Z"/></g>
<g><path style="opacity:0.145" fill="#720003" d="M 475.5,12.5 C 438.644,26.6217 404.31,46.1217 372.5,71C 370.415,71.5288 368.582,71.0288 367,69.5C 365.128,70.0682 363.295,70.7349 361.5,71.5C 360.893,71.3764 360.56,71.0431 360.5,70.5C 364.109,68.1269 367.609,68.1269 371,70.5C 402.304,45.0917 437.137,25.7583 475.5,12.5 Z"/></g>
<g><path style="opacity:0.495" fill="#460801" d="M 572.5,84.5 C 561.86,82.8936 551.193,81.3936 540.5,80C 529.172,79.5001 517.838,79.3335 506.5,79.5C 506.389,78.8826 506.056,78.3826 505.5,78C 518.516,77.4644 531.516,77.7977 544.5,79C 554.713,79.9584 564.046,81.7917 572.5,84.5 Z"/></g>
<g><path style="opacity:0.439" fill="#4d0801" d="M 502.5,79.5 C 489.781,80.4137 477.114,81.7471 464.5,83.5C 464.389,82.8826 464.056,82.3826 463.5,82C 476.584,79.5515 489.584,78.7181 502.5,79.5 Z"/></g>
<g><path style="opacity:0.506" fill="#4c0701" d="M 583.5,88.5 C 580.443,87.3674 577.443,86.3674 574.5,85.5C 574.735,84.9033 575.235,84.5699 576,84.5C 578.856,85.2557 581.689,86.089 584.5,87C 583.944,87.3826 583.611,87.8826 583.5,88.5 Z"/></g>
<g><path style="opacity:0.267" fill="#5a0902" d="M 462.5,83.5 C 439.364,86.9933 416.697,92.3266 394.5,99.5C 394.389,98.8826 394.056,98.3826 393.5,98C 416.193,90.4971 439.193,85.6638 462.5,83.5 Z"/></g>
<g><path style="opacity:0.137" fill="#6f0002" d="M 358.5,71.5 C 330.714,83.5688 303.38,97.7355 276.5,114C 272.696,116.466 270.029,119.799 268.5,124C 247.515,134.015 227.848,146.015 209.5,160C 207.512,160.18 205.512,160.014 203.5,159.5C 206.083,158.776 208.749,157.943 211.5,157C 228.835,143.657 247.502,132.324 267.5,123C 269.029,118.799 271.696,115.466 275.5,113C 301.794,96.5194 329.461,82.6861 358.5,71.5 Z"/></g>
<g><path style="opacity:0.384" fill="#5b0802" d="M 392.5,99.5 C 387.914,101.142 383.248,102.808 378.5,104.5C 378.389,103.883 378.056,103.383 377.5,103C 382,101.5 386.5,100 391,98.5C 391.765,98.5699 392.265,98.9033 392.5,99.5 Z"/></g>
<g><path style="opacity:0.396" fill="#5f0802" d="M 376.5,104.5 C 369.977,107.345 363.31,110.012 356.5,112.5C 359.52,109.797 363.52,107.631 368.5,106C 370.871,105.265 373.205,104.432 375.5,103.5C 376.107,103.624 376.44,103.957 376.5,104.5 Z"/></g>
<g><path style="opacity:0.325" fill="#660803" d="M 354.5,113.5 C 347.396,117.558 340.396,121.891 333.5,126.5C 330.573,127.801 327.573,128.801 324.5,129.5C 332.418,124.298 341.085,119.131 350.5,114C 351.946,112.702 353.279,112.535 354.5,113.5 Z"/></g>
<g><path style="opacity:0.259" fill="#640803" d="M 679.5,171.5 C 659.583,130.879 628.25,103.213 585.5,88.5C 617.224,96.9904 643.057,114.657 663,141.5C 669.336,150.835 675.169,160.501 680.5,170.5C 680.376,171.107 680.043,171.44 679.5,171.5 Z"/></g>
<g><path style="opacity:0.059" fill="#770003" d="M 554.5,-0.5 C 559.167,-0.5 563.833,-0.5 568.5,-0.5C 626.703,6.93374 675.036,32.7671 713.5,77C 776.861,99.452 835.194,130.785 888.5,171C 941.125,214.875 985.958,265.375 1023,322.5C 1031.93,337.357 1040.1,352.691 1047.5,368.5C 1053.13,368.743 1056.96,371.409 1059,376.5C 1058.91,381.544 1059.07,386.544 1059.5,391.5C 1073.62,383.618 1078.96,387.618 1075.5,403.5C 1075.35,400.044 1075.19,396.378 1075,392.5C 1071.25,387.441 1067.08,387.275 1062.5,392C 1060.87,392.494 1059.2,392.66 1057.5,392.5C 1057.34,388.293 1057.67,384.126 1058.5,380C 1057.49,373.158 1053.49,369.658 1046.5,369.5C 1039.1,353.691 1030.93,338.357 1022,323.5C 984.958,266.375 940.125,215.875 887.5,172C 834.194,131.785 775.861,100.452 712.5,78C 670.93,29.7154 618.264,3.54869 554.5,-0.5 Z"/></g>
<g><path style="opacity:0.294" fill="#5b0802" d="M 750.5,116.5 C 747.286,115.311 744.12,113.977 741,112.5C 756.121,138.635 768.288,166.301 777.5,195.5C 776.883,195.611 776.383,195.944 776,196.5C 766.954,166.411 754.121,138.078 737.5,111.5C 742.279,111.467 746.946,112.634 751.5,115C 750.944,115.383 750.611,115.883 750.5,116.5 Z"/></g>
<g><path style="opacity:0.325" fill="#660803" d="M 322.5,130.5 C 307.833,137.332 293.166,144.499 278.5,152C 265.468,158.512 253.468,166.512 242.5,176C 236.3,183.03 229.967,189.863 223.5,196.5C 223.167,196.5 222.833,196.5 222.5,196.5C 231.235,184.929 241.235,174.429 252.5,165C 274.623,151.604 297.623,139.771 321.5,129.5C 322.107,129.624 322.44,129.957 322.5,130.5 Z"/></g>
<g><path style="opacity:0.427" fill="#4d0601" d="M 682.5,177.5 C 681.326,176.486 680.66,175.153 680.5,173.5C 680.81,172.262 681.31,172.262 682,173.5C 683.298,174.946 683.465,176.279 682.5,177.5 Z"/></g>
<g><path style="opacity:0.42" fill="#530902" d="M 689.5,194.5 C 686.981,189.623 684.648,184.623 682.5,179.5C 683.117,179.389 683.617,179.056 684,178.5C 687.031,183.766 688.864,189.1 689.5,194.5 Z"/></g>
<g><path style="opacity:0.991" fill="#fe0000" d="M 604.5,254.5 C 604.672,255.492 604.338,256.158 603.5,256.5C 603.565,256.062 603.399,255.728 603,255.5C 601.702,256.946 601.535,258.279 602.5,259.5C 602.672,260.492 602.338,261.158 601.5,261.5C 601.565,261.062 601.399,260.728 601,260.5C 599.333,263.167 597.667,265.833 596,268.5C 595.308,269.437 595.475,270.103 596.5,270.5C 596.167,271.5 595.5,272.167 594.5,272.5C 594.565,272.062 594.399,271.728 594,271.5C 586.681,280.243 577.514,286.076 566.5,289C 567.056,289.383 567.389,289.883 567.5,290.5C 566.833,290.5 566.167,290.5 565.5,290.5C 559.361,290.396 553.028,290.229 546.5,290C 541.227,289.409 536.227,287.909 531.5,285.5C 530.893,285.624 530.56,285.957 530.5,286.5C 529.508,286.672 528.842,286.338 528.5,285.5C 529.738,285.19 529.738,284.69 528.5,284C 505.219,269.249 497.052,248.415 504,221.5C 515.091,195.197 534.925,183.697 563.5,187C 596.481,196.946 609.814,218.946 603.5,253C 603.57,253.765 603.903,254.265 604.5,254.5 Z"/></g>
<g><path style="opacity:0.165" fill="#b40004" d="M 222.5,196.5 C 222.833,196.5 223.167,196.5 223.5,196.5C 221.167,199.5 218.5,202.167 215.5,204.5C 215.5,204.167 215.5,203.833 215.5,203.5C 217.5,200.833 219.833,198.5 222.5,196.5 Z"/></g>
<g><path style="opacity:0.482" fill="#590702" d="M 777.5,197.5 C 778.309,199.028 778.976,200.694 779.5,202.5C 778.883,202.611 778.383,202.944 778,203.5C 777.654,201.782 777.154,200.115 776.5,198.5C 776.624,197.893 776.957,197.56 777.5,197.5 Z"/></g>
<g><path style="opacity:0.243" fill="#740003" d="M 203.5,159.5 C 185.981,172.505 169.148,186.505 153,201.5C 146.28,209.886 139.947,218.553 134,227.5C 108.177,254.151 86.5106,283.818 69,316.5C 56.262,342.286 44.0953,367.619 32.5,392.5C 49.6442,348.205 71.4776,306.538 98,267.5C 108.917,253.245 120.584,239.578 133,226.5C 151.481,198.851 174.981,176.518 203.5,159.5 Z"/></g>
<g><path style="opacity:0.278" fill="#500a02" d="M 215.5,203.5 C 215.5,203.833 215.5,204.167 215.5,204.5C 211.167,209.5 206.5,214.167 201.5,218.5C 201.5,217.833 201.167,217.5 200.5,217.5C 204.892,212.106 209.892,207.439 215.5,203.5 Z"/></g>
<g><path style="opacity:0.471" fill="#590802" d="M 694.5,276.5 C 700.681,249.339 699.014,222.673 689.5,196.5C 690.117,196.389 690.617,196.056 691,195.5C 700.3,222.364 701.967,249.698 696,277.5C 695.617,276.944 695.117,276.611 694.5,276.5 Z"/></g>
<g><path style="opacity:0.557" fill="#650803" d="M 991.5,323.5 C 989.472,320.228 988.805,316.728 989.5,313C 981.702,301.236 973.535,289.736 965,278.5C 938.527,242.694 907.361,211.527 871.5,185C 833.099,159.302 793.099,136.468 751.5,116.5C 793.526,134.687 833.526,156.854 871.5,183C 909.706,211.54 942.873,245.04 971,283.5C 978.057,292.892 984.724,302.558 991,312.5C 990.381,315.709 990.881,318.876 992.5,322C 992.43,322.765 992.097,323.265 991.5,323.5 Z"/></g>
<g><path style="opacity:0.196" fill="#980104" d="M 200.5,217.5 C 201.167,217.5 201.5,217.833 201.5,218.5C 189.473,229.86 177.806,241.527 166.5,253.5C 165.475,253.103 165.308,252.437 166,251.5C 177.368,239.965 188.868,228.631 200.5,217.5 Z"/></g>
<g><path style="opacity:0.357" fill="#5f0502" d="M 604.5,254.5 C 603.903,254.265 603.57,253.765 603.5,253C 609.814,218.946 596.481,196.946 563.5,187C 534.925,183.697 515.091,195.197 504,221.5C 497.052,248.415 505.219,269.249 528.5,284C 529.738,284.69 529.738,285.19 528.5,285.5C 506.232,272.623 497.066,253.29 501,227.5C 509.597,197.772 529.431,183.605 560.5,185C 590.072,190.73 605.405,208.563 606.5,238.5C 606.724,244.098 606.057,249.431 604.5,254.5 Z"/></g>
<g><path style="opacity:0.318" fill="#5d0902" d="M 165.5,255.5 C 164.5,256.5 163.5,257.5 162.5,258.5C 161.441,256.93 161.941,255.597 164,254.5C 164.383,255.056 164.883,255.389 165.5,255.5 Z"/></g>
<g><path style="opacity:0.404" fill="#4b0500" d="M 603.5,256.5 C 603.737,257.791 603.404,258.791 602.5,259.5C 601.535,258.279 601.702,256.946 603,255.5C 603.399,255.728 603.565,256.062 603.5,256.5 Z"/></g>
<g><path style="opacity:0.243" fill="#6c0803" d="M 160.5,260.5 C 157.406,265.022 154.073,269.356 150.5,273.5C 149.475,273.103 149.308,272.437 150,271.5C 153.333,267.5 156.667,263.5 160,259.5C 160.399,259.728 160.565,260.062 160.5,260.5 Z"/></g>
<g><path style="opacity:0.286" fill="#5e0802" d="M 601.5,261.5 C 600.61,264.948 598.943,267.948 596.5,270.5C 595.475,270.103 595.308,269.437 596,268.5C 597.667,265.833 599.333,263.167 601,260.5C 601.399,260.728 601.565,261.062 601.5,261.5 Z"/></g>
<g><path style="opacity:0.216" fill="#650903" d="M 148.5,275.5 C 146.878,278.455 144.878,281.122 142.5,283.5C 141.475,283.103 141.308,282.437 142,281.5C 144.237,279.353 146.237,277.02 148,274.5C 148.399,274.728 148.565,275.062 148.5,275.5 Z"/></g>
<g><path style="opacity:0.153" fill="#720503" d="M 594.5,272.5 C 587.4,281.226 578.4,287.226 567.5,290.5C 567.389,289.883 567.056,289.383 566.5,289C 577.514,286.076 586.681,280.243 594,271.5C 594.399,271.728 594.565,272.062 594.5,272.5 Z"/></g>
<g><path style="opacity:0.525" fill="#500501" d="M 694.5,278.5 C 695.196,281.461 694.696,284.461 693,287.5C 692.617,286.944 692.117,286.611 691.5,286.5C 692.5,283.833 693.5,281.167 694.5,278.5 Z"/></g>
<g><path style="opacity:0.388" fill="#510801" d="M 779.5,204.5 C 780.469,206.663 781.302,208.996 782,211.5C 788.327,243.059 789.161,274.726 784.5,306.5C 783.861,305.903 783.528,305.07 783.5,304C 788.571,270.967 786.905,238.3 778.5,206C 778.57,205.235 778.903,204.735 779.5,204.5 Z"/></g>
<g><path style="opacity:0.303" fill="#550501" d="M 565.5,290.5 C 553.32,293.092 541.654,291.758 530.5,286.5C 530.56,285.957 530.893,285.624 531.5,285.5C 536.227,287.909 541.227,289.409 546.5,290C 553.028,290.229 559.361,290.396 565.5,290.5 Z"/></g>
<g><path style="opacity:0.51" fill="#450801" d="M 336.5,291.5 C 336.265,292.097 335.765,292.43 335,292.5C 315.649,288.039 296.482,288.705 277.5,294.5C 276.893,294.376 276.56,294.043 276.5,293.5C 296.285,286.518 316.285,285.852 336.5,291.5 Z"/></g>
<g><path style="opacity:0.251" fill="#680602" d="M 338.5,291.5 C 340.306,292.024 341.972,292.691 343.5,293.5C 343.44,294.043 343.107,294.376 342.5,294.5C 340.885,293.846 339.218,293.346 337.5,293C 338.056,292.617 338.389,292.117 338.5,291.5 Z"/></g>
<g><path style="opacity:0.251" fill="#690803" d="M 141.5,285.5 C 133.52,295.45 126.02,305.783 119,316.5C 108,335.5 97,354.5 86,373.5C 84.6667,376.167 82.6667,378.167 80,379.5C 78.0124,384.809 75.5124,389.809 72.5,394.5C 71.9569,394.44 71.6236,394.107 71.5,393.5C 87.5557,367.07 103.389,340.403 119,313.5C 125.667,304.167 132.333,294.833 139,285.5C 139.77,284.402 140.603,284.402 141.5,285.5 Z"/></g>
<g><path style="opacity:0.522" fill="#570902" d="M 457.5,339.5 C 453.555,333.038 449.389,326.038 445,318.5C 440.613,312.768 435.113,308.602 428.5,306C 424.93,305.738 421.597,305.571 418.5,305.5C 425.646,303.404 432.313,304.57 438.5,309C 447.688,317.408 454.021,327.575 457.5,339.5 Z"/></g>
<g><path style="opacity:0.286" fill="#590802" d="M 274.5,293.5 C 274.611,294.117 274.944,294.617 275.5,295C 234.648,311.507 204.815,339.674 186,379.5C 176.989,402.103 175.156,425.27 180.5,449C 180.43,449.765 180.097,450.265 179.5,450.5C 173.53,427.616 174.697,404.95 183,382.5C 201.532,340.468 232.032,310.801 274.5,293.5 Z"/></g>
<g><path style="opacity:0.38" fill="#630803" d="M 345.5,294.5 C 365.635,300.793 383.135,311.46 398,326.5C 401.163,322.844 403.829,318.844 406,314.5C 408.828,310.825 412.328,308.158 416.5,306.5C 416.938,306.435 417.272,306.601 417.5,307C 409.219,312.787 402.886,320.287 398.5,329.5C 382.746,313.866 365.079,302.199 345.5,294.5 Z"/></g>
<g><path style="opacity:0.341" fill="#650703" d="M 691.5,288.5 C 692.043,288.56 692.376,288.893 692.5,289.5C 685.149,309.989 674.316,328.322 660,344.5C 617.115,389.275 566.282,420.942 507.5,439.5C 553.222,423 594.889,399.5 632.5,369C 659.063,346.978 678.73,320.145 691.5,288.5 Z"/></g>
<g><path style="opacity:0.537" fill="#490801" d="M 784.5,308.5 C 782.909,319.861 780.242,330.861 776.5,341.5C 775.903,341.265 775.57,340.765 775.5,340C 778.866,329.369 781.366,318.536 783,307.5C 783.383,308.056 783.883,308.389 784.5,308.5 Z"/></g>
<g><path style="opacity:0.518" fill="#510601" d="M 993.5,330.5 C 992.833,328.833 992.167,327.167 991.5,325.5C 992.117,325.389 992.617,325.056 993,324.5C 993.5,326 994,327.5 994.5,329C 994.43,329.765 994.097,330.265 993.5,330.5 Z"/></g>
<g><path style="opacity:0.408" fill="#560902" d="M 1012.5,361.5 C 1008.11,353.719 1003.94,345.719 1000,337.5C 997.315,336.419 995.149,334.752 993.5,332.5C 994.117,332.389 994.617,332.056 995,331.5C 996.608,333.1 998.441,334.433 1000.5,335.5C 1005.75,343.974 1009.75,352.641 1012.5,361.5 Z"/></g>
<g><path style="opacity:0.435" fill="#5a0903" d="M 776.5,343.5 C 775.945,346.096 774.945,348.429 773.5,350.5C 772.957,350.44 772.624,350.107 772.5,349.5C 773.432,347.205 774.265,344.871 775,342.5C 775.383,343.056 775.883,343.389 776.5,343.5 Z"/></g>
<g><path style="opacity:0.49" fill="#480701" d="M 458.5,341.5 C 466.786,360.226 469.786,379.893 467.5,400.5C 468.078,380.638 464.744,361.305 457.5,342.5C 457.624,341.893 457.957,341.56 458.5,341.5 Z"/></g>
<g><path style="opacity:0.471" fill="#5e0702" d="M 1019.5,376.5 C 1016.74,372.571 1014.74,368.238 1013.5,363.5C 1013.81,362.262 1014.31,362.262 1015,363.5C 1016.56,367.619 1018.39,371.619 1020.5,375.5C 1020.38,376.107 1020.04,376.44 1019.5,376.5 Z"/></g>
<g><path style="opacity:0.271" fill="#670803" d="M 773.5,352.5 C 765.632,373.493 754.966,392.827 741.5,410.5C 740.475,410.103 740.308,409.437 741,408.5C 754.172,391.164 764.505,372.164 772,351.5C 772.383,352.056 772.883,352.389 773.5,352.5 Z"/></g>
<g><path style="opacity:0.592" fill="#5f0702" d="M 972.5,422.5 C 974.95,412.765 979.617,404.265 986.5,397C 997.36,390.38 1008.69,384.714 1020.5,380C 1019.94,379.617 1019.61,379.117 1019.5,378.5C 1020.95,377.342 1021.95,377.842 1022.5,380C 1011.41,385.381 1000.41,391.048 989.5,397C 986.296,399.869 983.463,403.035 981,406.5C 978.161,412.548 975.328,417.881 972.5,422.5 Z"/></g>
<g><path style="opacity:0.018" fill="#260800" d="M 467.5,402.5 C 467.672,403.492 467.338,404.158 466.5,404.5C 465.427,403.749 465.26,402.749 466,401.5C 466.383,402.056 466.883,402.389 467.5,402.5 Z"/></g>
<g><path style="opacity:0.035" fill="#720002" d="M 1074.5,405.5 C 1073.29,411.462 1071.29,417.129 1068.5,422.5C 1067.96,422.44 1067.62,422.107 1067.5,421.5C 1069.98,415.529 1072.32,410.196 1074.5,405.5 Z"/></g>
<g><path style="opacity:0.357" fill="#5e0802" d="M 72.5,396.5 C 69.3063,402.751 66.3063,409.085 63.5,415.5C 64.9697,408.813 67.4697,402.147 71,395.5C 71.3826,396.056 71.8826,396.389 72.5,396.5 Z"/></g>
<g><path style="opacity:0.271" fill="#600903" d="M 740.5,412.5 C 736.177,418.155 731.51,423.488 726.5,428.5C 726.167,428.5 725.833,428.5 725.5,428.5C 729.81,423.347 733.977,418.014 738,412.5C 738.77,411.402 739.603,411.402 740.5,412.5 Z"/></g>
<g><path style="opacity:0.49" fill="#500802" d="M 63.5,417.5 C 62.0722,421.35 60.4056,425.017 58.5,428.5C 57.9569,428.44 57.6236,428.107 57.5,427.5C 59,423.833 60.5,420.167 62,416.5C 62.3826,417.056 62.8826,417.389 63.5,417.5 Z"/></g>
<g><path style="opacity:0.349" fill="#630602" d="M 971.5,424.5 C 972.043,424.56 972.376,424.893 972.5,425.5C 971.302,429.458 969.635,432.458 967.5,434.5C 968.535,431.006 969.868,427.673 971.5,424.5 Z"/></g>
<g><path style="opacity:0.184" fill="#640903" d="M 58.5,430.5 C 56.1411,437.247 53.8078,443.914 51.5,450.5C 50.9033,450.265 50.5699,449.765 50.5,449C 52.6667,442.5 54.8333,436 57,429.5C 57.3826,430.056 57.8826,430.389 58.5,430.5 Z"/></g>
<g><path style="opacity:0.298" fill="#660803" d="M 466.5,406.5 C 462.728,412.382 459.728,418.715 457.5,425.5C 459.353,434.016 464.353,439.683 472.5,442.5C 464.996,441.538 459.829,437.205 457,429.5C 456.262,425.739 456.595,422.072 458,418.5C 460.602,414.294 462.936,409.961 465,405.5C 465.383,406.056 465.883,406.389 466.5,406.5 Z"/></g>
<g><path style="opacity:0.384" fill="#540701" d="M 966.5,435.5 C 966.804,436.15 967.137,436.817 967.5,437.5C 966.806,439.812 965.806,441.146 964.5,441.5C 964.595,439.214 965.262,437.214 966.5,435.5 Z"/></g>
<g><path style="opacity:0.184" fill="#a10004" d="M 725.5,428.5 C 725.833,428.5 726.167,428.5 726.5,428.5C 721.5,434.167 716.167,439.5 710.5,444.5C 710.5,444.167 710.5,443.833 710.5,443.5C 715.167,438.167 720.167,433.167 725.5,428.5 Z"/></g>
<g><path style="opacity:0.082" fill="#6b0002" d="M 1068.5,425.5 C 1072.7,438.763 1076.7,452.097 1080.5,465.5C 1075.87,453.456 1071.54,440.623 1067.5,427C 1067.57,426.235 1067.9,425.735 1068.5,425.5 Z"/></g>
<g><path style="opacity:0.561" fill="#580301" d="M 505.5,440.5 C 505.487,441.466 504.487,442.132 502.5,442.5C 501.893,442.376 501.56,442.043 501.5,441.5C 502.568,440.566 503.901,440.232 505.5,440.5 Z"/></g>
<g><path style="opacity:0.451" fill="#590200" d="M 821.5,440.5 C 815.074,441.101 808.574,442.101 802,443.5C 801.235,443.43 800.735,443.097 800.5,442.5C 807.318,440.665 814.318,439.998 821.5,440.5 Z"/></g>
<g><path style="opacity:0.318" fill="#650602" d="M 823.5,440.5 C 826.539,441.01 829.539,441.677 832.5,442.5C 832.083,443.124 831.416,443.457 830.5,443.5C 827.855,442.892 825.188,442.392 822.5,442C 823.056,441.617 823.389,441.117 823.5,440.5 Z"/></g>
<g><path style="opacity:0.463" fill="#3b0600" d="M 499.5,441.5 C 500.679,443.409 500.346,443.742 498.5,442.5C 498.5,441.833 498.833,441.5 499.5,441.5 Z"/></g>
<g><path style="opacity:0.498" fill="#520600" d="M 474.5,442.5 C 481.5,445.167 488.5,445.167 495.5,442.5C 496.602,444.092 495.935,444.925 493.5,445C 486.751,445.877 480.084,445.544 473.5,444C 474.056,443.617 474.389,443.117 474.5,442.5 Z"/></g>
<g><path style="opacity:0.314" fill="#540a02" d="M 710.5,443.5 C 710.5,443.833 710.5,444.167 710.5,444.5C 709.027,446.395 707.36,448.061 705.5,449.5C 705.389,448.883 705.056,448.383 704.5,448C 706.114,445.873 708.114,444.373 710.5,443.5 Z"/></g>
<g><path style="opacity:0.565" fill="#430701" d="M 834.5,442.5 C 836.626,443.048 838.626,443.715 840.5,444.5C 838.177,445.582 835.843,445.415 833.5,444C 834.056,443.617 834.389,443.117 834.5,442.5 Z"/></g>
<g><path style="opacity:0.251" fill="#5f0602" d="M 842.5,444.5 C 846.918,445.864 851.251,447.197 855.5,448.5C 855.265,449.097 854.765,449.43 854,449.5C 849.833,448.333 845.667,447.167 841.5,446C 842.056,445.617 842.389,445.117 842.5,444.5 Z"/></g>
<g><path style="opacity:0.49" fill="#3c0700" d="M 857.5,448.5 C 858.492,448.328 859.158,448.662 859.5,449.5C 858.749,450.573 857.749,450.74 856.5,450C 857.056,449.617 857.389,449.117 857.5,448.5 Z"/></g>
<g><path style="opacity:0.4" fill="#570702" d="M 963.5,443.5 C 964.043,443.56 964.376,443.893 964.5,444.5C 958.96,456.339 955.46,468.672 954,481.5C 945.925,478.475 937.758,475.641 929.5,473C 930.056,472.617 930.389,472.117 930.5,471.5C 938.14,473.735 945.64,476.402 953,479.5C 954.21,466.716 957.71,454.716 963.5,443.5 Z"/></g>
<g><path style="opacity:0.31" fill="#520901" d="M 702.5,451.5 C 701.833,452.833 700.833,453.833 699.5,454.5C 698.537,452.702 699.204,451.368 701.5,450.5C 702.107,450.624 702.44,450.957 702.5,451.5 Z"/></g>
<g><path style="opacity:0.478" fill="#4e0801" d="M 861.5,449.5 C 863.306,450.024 864.972,450.691 866.5,451.5C 866.265,452.097 865.765,452.43 865,452.5C 863.5,452 862,451.5 860.5,451C 861.056,450.617 861.389,450.117 861.5,449.5 Z"/></g>
<g><path style="opacity:0.014" fill="#240700" d="M 51.5,452.5 C 51.6716,453.492 51.3382,454.158 50.5,454.5C 49.4265,453.749 49.2599,452.749 50,451.5C 50.3826,452.056 50.8826,452.389 51.5,452.5 Z"/></g>
<g><path style="opacity:0.498" fill="#410800" d="M 181.5,457.5 C 180.691,455.972 180.024,454.306 179.5,452.5C 180.117,452.389 180.617,452.056 181,451.5C 181.5,453 182,454.5 182.5,456C 182.43,456.765 182.097,457.265 181.5,457.5 Z"/></g>
<g><path style="opacity:0.208" fill="#630602" d="M 868.5,451.5 C 872.145,453.168 875.812,454.501 879.5,455.5C 879.265,456.097 878.765,456.43 878,456.5C 874.5,455.333 871,454.167 867.5,453C 868.056,452.617 868.389,452.117 868.5,451.5 Z"/></g>
<g><path style="opacity:0.455" fill="#4f0701" d="M 1059.5,461.5 C 1058.83,460.167 1058.17,458.833 1057.5,457.5C 1058.55,465.307 1060.21,472.974 1062.5,480.5C 1061.88,480.611 1061.38,480.944 1061,481.5C 1057.75,468.685 1054.59,455.852 1051.5,443C 1051.51,441.596 1052.01,440.43 1053,439.5C 1055.88,446.147 1058.38,452.98 1060.5,460C 1060.43,460.765 1060.1,461.265 1059.5,461.5 Z"/></g>
<g><path style="opacity:0.271" fill="#660702" d="M 696.5,456.5 C 695.5,457.5 694.5,458.5 693.5,459.5C 692.537,457.702 693.204,456.368 695.5,455.5C 696.107,455.624 696.44,455.957 696.5,456.5 Z"/></g>
<g><path style="opacity:0.2" fill="#690803" d="M 881.5,455.5 C 884.252,456.512 886.919,457.512 889.5,458.5C 886.51,459.032 883.51,458.532 880.5,457C 881.056,456.617 881.389,456.117 881.5,455.5 Z"/></g>
<g><path style="opacity:0.235" fill="#700502" d="M 691.5,460.5 C 691.158,461.338 690.492,461.672 689.5,461.5C 688.262,461.19 688.262,460.69 689.5,460C 690.437,459.308 691.103,459.475 691.5,460.5 Z"/></g>
<g><path style="opacity:0.471" fill="#4d0902" d="M 890.5,458.5 C 893.354,459.205 896.021,460.205 898.5,461.5C 898.265,462.097 897.765,462.43 897,462.5C 894.5,461.667 892,460.833 889.5,460C 890.056,459.617 890.389,459.117 890.5,458.5 Z"/></g>
<g><path style="opacity:0.502" fill="#470600" d="M 900.5,462.5 C 902.099,462.232 903.432,462.566 904.5,463.5C 902.911,464.621 901.244,464.454 899.5,463C 899.728,462.601 900.062,462.435 900.5,462.5 Z"/></g>
<g><path style="opacity:0.196" fill="#730803" d="M 906.5,463.5 C 907.995,463.989 909.329,464.655 910.5,465.5C 910.44,466.043 910.107,466.376 909.5,466.5C 908.205,465.902 906.872,465.402 905.5,465C 906.056,464.617 906.389,464.117 906.5,463.5 Z"/></g>
<g><path style="opacity:0.298" fill="#5c0802" d="M 687.5,463.5 C 685.858,464.803 684.191,466.136 682.5,467.5C 681.402,466.603 681.402,465.77 682.5,465C 683.966,464.365 685.3,463.531 686.5,462.5C 687.107,462.624 687.44,462.957 687.5,463.5 Z"/></g>
<g><path style="opacity:0.2" fill="#740403" d="M 912.5,466.5 C 914.099,466.232 915.432,466.566 916.5,467.5C 916.44,468.043 916.107,468.376 915.5,468.5C 913.513,468.132 912.513,467.466 912.5,466.5 Z"/></g>
<g><path style="opacity:0.255" fill="#640702" d="M 680.5,468.5 C 677.872,470.488 675.205,472.488 672.5,474.5C 671.402,473.603 671.402,472.77 672.5,472C 674.833,470.5 677.167,469 679.5,467.5C 680.107,467.624 680.44,467.957 680.5,468.5 Z"/></g>
<g><path style="opacity:0.349" fill="#630803" d="M 201.5,557.5 C 193.678,553.746 186.678,548.746 180.5,542.5C 169.431,532.231 166.931,520.231 173,506.5C 180.041,499.391 188.208,493.891 197.5,490C 190.475,480.784 185.475,470.617 182.5,459.5C 187.136,469.723 192.803,480.057 199.5,490.5C 193.233,493.97 186.9,497.47 180.5,501C 167.722,512.88 167.222,525.38 179,538.5C 185.642,545.48 193.142,551.313 201.5,556C 202.738,556.69 202.738,557.19 201.5,557.5 Z"/></g>
<g><path style="opacity:0.412" fill="#620903" d="M 918.5,467.5 C 922.037,468.54 925.37,469.873 928.5,471.5C 928.44,472.043 928.107,472.376 927.5,472.5C 924.204,471.235 920.871,470.068 917.5,469C 918.056,468.617 918.389,468.117 918.5,467.5 Z"/></g>
<g><path style="opacity:0.055" fill="#610001" d="M 1081.5,467.5 C 1085.13,481.036 1088.3,494.702 1091,508.5C 1091.72,522.852 1091.56,537.185 1090.5,551.5C 1090.44,537.681 1090.28,523.681 1090,509.5C 1087.38,495.866 1084.22,482.366 1080.5,469C 1080.57,468.235 1080.9,467.735 1081.5,467.5 Z"/></g>
<g><path style="opacity:0.251" fill="#670703" d="M 798.5,442.5 C 798.611,443.117 798.944,443.617 799.5,444C 789.974,447.522 782.14,453.355 776,461.5C 759.982,482.193 742.482,501.693 723.5,520C 713.524,528.66 702.524,535.827 690.5,541.5C 689.893,541.376 689.56,541.043 689.5,540.5C 703.289,533.425 715.955,524.592 727.5,514C 745.716,495.385 762.883,475.885 779,455.5C 784.41,449.544 790.91,445.211 798.5,442.5 Z"/></g>
<g><path style="opacity:0.349" fill="#5f0602" d="M 1063.5,486.5 C 1063.71,487.922 1064.21,489.255 1065,490.5C 1065.28,487.942 1064.78,485.608 1063.5,483.5C 1063.11,476.618 1061.78,469.951 1059.5,463.5C 1060.12,463.389 1060.62,463.056 1061,462.5C 1064.61,474.124 1066.44,485.79 1066.5,497.5C 1065.7,496.048 1065.2,494.382 1065,492.5C 1063.68,492.201 1062.18,492.034 1060.5,492C 1056.41,479.055 1051.91,466.221 1047,453.5C 1042.49,460.183 1039.66,467.517 1038.5,475.5C 1037.88,475.083 1037.54,474.416 1037.5,473.5C 1039.02,465.133 1042.19,457.466 1047,450.5C 1052.64,463.097 1057.31,476.097 1061,489.5C 1061.33,489.833 1061.67,490.167 1062,490.5C 1062.21,488.942 1062.71,487.609 1063.5,486.5 Z M 1063.5,483.5 C 1064.78,485.608 1065.28,487.942 1065,490.5C 1064.21,489.255 1063.71,487.922 1063.5,486.5C 1063.5,485.833 1063.5,485.167 1063.5,484.5C 1063.5,484.167 1063.5,483.833 1063.5,483.5 Z"/></g>
<g><path style="opacity:0.451" fill="#450600" d="M 1062.5,482.5 C 1062.5,483.167 1062.83,483.5 1063.5,483.5C 1063.5,483.833 1063.5,484.167 1063.5,484.5C 1062.88,484.611 1062.38,484.944 1062,485.5C 1061.26,484.251 1061.43,483.251 1062.5,482.5 Z"/></g>
<g><path style="opacity:0.173" fill="#8d0404" d="M 670.5,475.5 C 662.529,480.326 655.529,486.326 649.5,493.5C 648.475,493.103 648.308,492.437 649,491.5C 654.62,484.873 661.12,479.373 668.5,475C 669.437,474.308 670.103,474.475 670.5,475.5 Z"/></g>
<g><path style="opacity:0.247" fill="#590602" d="M 1037.5,477.5 C 1036.68,488.504 1034.68,499.504 1031.5,510.5C 1032.95,513.122 1035.12,514.788 1038,515.5C 1039.84,508.306 1043,501.806 1047.5,496C 1053.13,493.224 1057.63,494.391 1061,499.5C 1064.76,516.125 1064.26,532.458 1059.5,548.5C 1058.96,548.44 1058.62,548.107 1058.5,547.5C 1063.63,531.241 1063.8,514.907 1059,498.5C 1056.14,495.65 1052.98,495.15 1049.5,497C 1044.74,502.352 1041.41,508.519 1039.5,515.5C 1032.83,516.324 1029.99,513.324 1031,506.5C 1033.24,496.139 1035.41,486.473 1037.5,477.5 Z"/></g>
<g><path style="opacity:0.435" fill="#5e0802" d="M 648.5,495.5 C 642.895,502.256 640.895,509.922 642.5,518.5C 641.883,518.611 641.383,518.944 641,519.5C 639.285,510.79 640.951,502.79 646,495.5C 646.77,494.402 647.603,494.402 648.5,495.5 Z"/></g>
<g><path style="opacity:0.484" fill="#480801" d="M 50.5,456.5 C 49.2281,461.123 48.0614,465.79 47,470.5C 43.3433,507.087 40.8433,543.754 39.5,580.5C 39.1667,580.5 38.8333,580.5 38.5,580.5C 39.2279,545.748 41.3946,511.081 45,476.5C 45.6909,469.379 47.0242,462.379 49,455.5C 49.3826,456.056 49.8826,456.389 50.5,456.5 Z"/></g>
<g><path style="opacity:0.067" fill="#570401" d="M 1075.5,586.5 C 1073.59,568.552 1072.09,550.552 1071,532.5C 1070.22,521.684 1068.72,511.017 1066.5,500.5C 1067.12,500.389 1067.62,500.056 1068,499.5C 1072.42,528.534 1074.92,557.534 1075.5,586.5 Z"/></g>
<g><path style="opacity:0.071" fill="#560301" d="M 31.5,394.5 C 32.4793,395.765 33.4793,397.099 34.5,398.5C 26.8856,420.851 22.7189,443.851 22,467.5C 16.56,488.262 12.2266,509.262 9,530.5C 4.7769,561.545 1.61023,592.545 -0.5,623.5C -0.5,617.833 -0.5,612.167 -0.5,606.5C 2.0946,560.329 8.92794,514.662 20,469.5C 21.3078,445.486 25.4745,421.986 32.5,399C 32.2409,397.739 31.5742,396.739 30.5,396C 31.056,395.617 31.3893,395.117 31.5,394.5 Z"/></g>
<g><path style="opacity:0.349" fill="#5a0803" d="M 642.5,520.5 C 651.1,537.3 664.766,544.3 683.5,541.5C 683.611,542.117 683.944,542.617 684.5,543C 664.846,546.506 650.512,539.339 641.5,521.5C 641.624,520.893 641.957,520.56 642.5,520.5 Z"/></g>
<g><path style="opacity:0.396" fill="#440700" d="M 686.5,540.5 C 687.679,542.409 687.346,542.742 685.5,541.5C 685.5,540.833 685.833,540.5 686.5,540.5 Z"/></g>
<g><path style="opacity:0.49" fill="#510802" d="M 959.5,572.5 C 936.374,565.801 913.374,558.634 890.5,551C 882.962,548.531 875.295,548.031 867.5,549.5C 862.725,555.391 858.725,561.725 855.5,568.5C 854.957,568.44 854.624,568.107 854.5,567.5C 857.475,559.385 862.141,552.552 868.5,547C 880.484,546.91 892.151,548.91 903.5,553C 922.832,559.601 941.499,566.101 959.5,572.5 Z"/></g>
<g><path style="opacity:0.459" fill="#530300" d="M 205.5,559.5 C 204.508,559.672 203.842,559.338 203.5,558.5C 204.497,557.287 205.497,557.454 206.5,559C 206.272,559.399 205.938,559.565 205.5,559.5 Z"/></g>
<g><path style="opacity:0.196" fill="#850404" d="M 1058.5,550.5 C 1056.01,557 1051.67,562 1045.5,565.5C 1045.06,565.565 1044.73,565.399 1044.5,565C 1050.44,560.576 1055.11,555.743 1058.5,550.5 Z"/></g>
<g><path style="opacity:0.478" fill="#630903" d="M 286.5,579.5 C 276.853,575.59 268.02,570.256 260,563.5C 257.092,565.515 253.926,566.848 250.5,567.5C 250.389,566.883 250.056,566.383 249.5,566C 253.263,565.08 256.763,563.58 260,561.5C 268.788,568.562 277.621,574.562 286.5,579.5 Z"/></g>
<g><path style="opacity:0.616" fill="#3d0600" d="M 207.5,560.5 C 207.56,559.957 207.893,559.624 208.5,559.5C 221.335,565.382 234.668,568.049 248.5,567.5C 234.016,569.485 220.349,567.151 207.5,560.5 Z"/></g>
<g><path style="opacity:0.141" fill="#570201" d="M 1089.5,552.5 C 1089.19,561.994 1087.86,571.328 1085.5,580.5C 1084.88,580.083 1084.54,579.416 1084.5,578.5C 1086.4,569.738 1088.07,561.072 1089.5,552.5 Z"/></g>
<g><path style="opacity:0.384" fill="#550601" d="M 854.5,570.5 C 854.737,571.791 854.404,572.791 853.5,573.5C 852.535,572.279 852.702,570.946 854,569.5C 854.399,569.728 854.565,570.062 854.5,570.5 Z"/></g>
<g><path style="opacity:0.384" fill="#5f0702" d="M 1043.5,567.5 C 1042.43,568.885 1041.09,570.051 1039.5,571C 1035.4,573.386 1031.06,575.219 1026.5,576.5C 1030.95,573.542 1035.95,570.376 1041.5,567C 1042.44,566.308 1043.1,566.475 1043.5,567.5 Z"/></g>
<g><path style="opacity:0.404" fill="#4a0801" d="M 1017.5,579.5 C 998.293,581.164 979.626,579.164 961.5,573.5C 961.735,572.903 962.235,572.57 963,572.5C 980.967,577.516 999.134,579.849 1017.5,579.5 Z"/></g>
<g><path style="opacity:0.498" fill="#530701" d="M 852.5,575.5 C 852.025,579.084 851.025,582.417 849.5,585.5C 848.957,585.44 848.624,585.107 848.5,584.5C 849.2,580.523 850.533,577.523 852.5,575.5 Z"/></g>
<g><path style="opacity:0.451" fill="#450800" d="M 1024.5,577.5 C 1022.97,578.309 1021.31,578.976 1019.5,579.5C 1019.39,578.883 1019.06,578.383 1018.5,578C 1020,577.5 1021.5,577 1023,576.5C 1023.76,576.57 1024.26,576.903 1024.5,577.5 Z"/></g>
<g><path style="opacity:0.392" fill="#320800" d="M 1078.5,595.5 C 1078.5,595.833 1078.5,596.167 1078.5,596.5C 1077.43,597.692 1076.6,597.359 1076,595.5C 1075.5,593.19 1075.34,590.857 1075.5,588.5C 1076.12,588.389 1076.62,588.056 1077,587.5C 1077.18,590.365 1077.68,593.031 1078.5,595.5 Z"/></g>
<g><path style="opacity:0.447" fill="#590802" d="M 849.5,587.5 C 846.814,596.921 844.148,606.254 841.5,615.5C 840.903,615.265 840.57,614.765 840.5,614C 843.078,604.855 845.578,595.689 848,586.5C 848.383,587.056 848.883,587.389 849.5,587.5 Z"/></g>
<g><path style="opacity:0.082" fill="#750102" d="M 1084.5,582.5 C 1083.84,587.824 1081.84,592.49 1078.5,596.5C 1078.5,596.167 1078.5,595.833 1078.5,595.5C 1080.63,590.552 1082.63,586.219 1084.5,582.5 Z"/></g>
<g><path style="opacity:0.494" fill="#570702" d="M 841.5,617.5 C 840.805,620.28 839.805,622.947 838.5,625.5C 837.957,625.44 837.624,625.107 837.5,624.5C 838.332,621.839 839.166,619.172 840,616.5C 840.383,617.056 840.883,617.389 841.5,617.5 Z"/></g>
<g><path style="opacity:0.329" fill="#620702" d="M 247.5,702.5 C 258.621,661.617 274.121,622.617 294,585.5C 294.749,584.365 294.583,583.365 293.5,582.5C 291.664,581.972 289.997,581.306 288.5,580.5C 288.56,579.957 288.893,579.624 289.5,579.5C 292.325,580.383 294.992,581.55 297.5,583C 276.446,621.152 260.28,661.319 249,703.5C 248.617,702.944 248.117,702.611 247.5,702.5 Z"/></g>
<g><path style="opacity:0.416" fill="#480400" d="M -0.5,625.5 C 0.421017,628.14 1.08768,630.973 1.5,634C 1.47196,635.07 1.13863,635.903 0.5,636.5C 0.67158,635.508 0.338246,634.842 -0.5,634.5C -0.5,631.5 -0.5,628.5 -0.5,625.5 Z"/></g>
<g><path style="opacity:0.067" fill="#5c0401" d="M 2.5,649.5 C 1.99003,646.461 1.32336,643.461 0.5,640.5C 1.11742,640.389 1.61742,640.056 2,639.5C 2.5,642 3,644.5 3.5,647C 3.47196,648.07 3.13863,648.903 2.5,649.5 Z"/></g>
<g><path style="opacity:0.231" fill="#6b0903" d="M 838.5,627.5 C 836.675,633.137 834.175,638.47 831,643.5C 825.057,652.409 818.89,661.076 812.5,669.5C 811.475,669.103 811.308,668.437 812,667.5C 822.117,654.935 830.45,641.268 837,626.5C 837.383,627.056 837.883,627.389 838.5,627.5 Z"/></g>
<g><path style="opacity:0.549" fill="#4c0601" d="M 1060.5,715.5 C 1059.88,715.083 1059.54,714.416 1059.5,713.5C 1067.62,673.827 1069.95,633.827 1066.5,593.5C 1063.75,640.152 1056.75,686.152 1045.5,731.5C 1044.13,731.657 1042.79,731.49 1041.5,731C 1042.06,730.617 1042.39,730.117 1042.5,729.5C 1044.4,727.731 1045.56,725.398 1046,722.5C 1056.34,679.569 1062.51,636.069 1064.5,592C 1065.78,591.316 1066.95,591.483 1068,592.5C 1071.84,633.905 1069.34,674.905 1060.5,715.5 Z"/></g>
<g><path style="opacity:0.576" fill="#580601" d="M 38.5,580.5 C 38.8333,580.5 39.1667,580.5 39.5,580.5C 39.3334,596.17 39.5001,611.837 40,627.5C 41.0108,654.634 44.8441,681.301 51.5,707.5C 50.8826,707.611 50.3826,707.944 50,708.5C 40.1033,666.409 36.27,623.743 38.5,580.5 Z"/></g>
<g><path style="opacity:0.286" fill="#5c0401" d="M 12.5,705.5 C 9.25614,687.45 5.92281,669.45 2.5,651.5C 3.11742,651.389 3.61742,651.056 4,650.5C 6.89707,668.049 10.0637,685.549 13.5,703C 13.472,704.07 13.1386,704.903 12.5,705.5 Z"/></g>
<g><path style="opacity:0.365" fill="#5d0902" d="M 811.5,671.5 C 805.169,679.836 800.169,688.836 796.5,698.5C 795.427,697.749 795.26,696.749 796,695.5C 799.302,686.893 803.635,678.893 809,671.5C 809.77,670.402 810.603,670.402 811.5,671.5 Z"/></g>
<g><path style="opacity:0.451" fill="#480600" d="M 51.5,709.5 C 51.8333,710.167 52.1667,710.833 52.5,711.5C 51.8826,711.611 51.3826,711.944 51,712.5C 50.2599,711.251 50.4265,710.251 51.5,709.5 Z"/></g>
<g><path style="opacity:0.306" fill="#530300" d="M 14.5,714.5 C 13.9853,712.106 13.3186,709.772 12.5,707.5C 13.1174,707.389 13.6174,707.056 14,706.5C 14.5,708.5 15,710.5 15.5,712.5C 15.4573,713.416 15.1239,714.083 14.5,714.5 Z"/></g>
<g><path style="opacity:0.357" fill="#630803" d="M 795.5,700.5 C 795.176,704.555 795.509,708.555 796.5,712.5C 817.524,739.023 838.358,765.69 859,792.5C 870.06,807.956 879.56,824.289 887.5,841.5C 891.198,845.36 895.531,846.36 900.5,844.5C 900.611,845.117 900.944,845.617 901.5,846C 897.013,848.039 892.68,847.706 888.5,845C 880.229,828.955 871.062,813.455 861,798.5C 839.382,769.881 817.382,741.547 795,713.5C 794.19,708.403 794.357,704.069 795.5,700.5 Z"/></g>
<g><path style="opacity:0.584" fill="#480601" d="M 52.5,713.5 C 53.7812,717.424 55.1146,721.424 56.5,725.5C 55.8826,725.611 55.3826,725.944 55,726.5C 53.6311,722.727 52.4645,718.894 51.5,715C 51.5699,714.235 51.9033,713.735 52.5,713.5 Z"/></g>
<g><path style="opacity:0.525" fill="#4d0601" d="M 247.5,704.5 C 248.097,704.735 248.43,705.235 248.5,706C 240.5,737.193 235.167,768.693 232.5,800.5C 232.5,799.833 232.167,799.5 231.5,799.5C 233.862,767.293 239.195,735.627 247.5,704.5 Z"/></g>
<g><path style="opacity:0.251" fill="#590301" d="M 1060.5,717.5 C 1059.68,719.772 1059.01,722.106 1058.5,724.5C 1057.88,724.083 1057.54,723.416 1057.5,722.5C 1058,720.5 1058.5,718.5 1059,716.5C 1059.38,717.056 1059.88,717.389 1060.5,717.5 Z"/></g>
<g><path style="opacity:0.537" fill="#4c0601" d="M 17.5,728.5 C 16.371,724.848 15.371,721.182 14.5,717.5C 15.1174,717.389 15.6174,717.056 16,716.5C 16.8333,719.833 17.6667,723.167 18.5,726.5C 18.4573,727.416 18.1239,728.083 17.5,728.5 Z"/></g>
<g><path style="opacity:0.561" fill="#400700" d="M 1040.5,729.5 C 1031.5,729.5 1022.5,729.5 1013.5,729.5C 1022.5,726.833 1031.5,726.833 1040.5,729.5 Z"/></g>
<g><path style="opacity:0.239" fill="#610502" d="M 23.5,751.5 C 21.3623,744.628 19.3623,737.628 17.5,730.5C 18.1174,730.389 18.6174,730.056 19,729.5C 20.5996,736.399 22.433,743.232 24.5,750C 24.4301,750.765 24.0967,751.265 23.5,751.5 Z"/></g>
<g><path style="opacity:0.6" fill="#580702" d="M 56.5,727.5 C 59.3355,735.81 62.3355,744.143 65.5,752.5C 64.1751,753.953 63.3418,753.619 63,751.5C 60.4011,743.87 57.9011,736.203 55.5,728.5C 55.6236,727.893 55.9569,727.56 56.5,727.5 Z"/></g>
<g><path style="opacity:0.361" fill="#640803" d="M 534.5,849.5 C 526.447,847.736 518.781,844.903 511.5,841C 501.078,833.914 491.912,825.414 484,815.5C 466.392,791.291 448.059,767.624 429,744.5C 424.454,740.286 419.621,736.453 414.5,733C 409.791,730.452 405.124,730.285 400.5,732.5C 399.047,731.175 399.381,730.342 401.5,730C 404.833,729.333 408.167,729.333 411.5,730C 422.818,735.98 432.318,744.147 440,754.5C 455.95,776.118 472.283,797.451 489,818.5C 495.198,825.032 501.698,831.199 508.5,837C 517.588,841.722 526.255,845.889 534.5,849.5 Z"/></g>
<g><path style="opacity:0.318" fill="#650803" d="M 393.5,738.5 C 387.895,748.046 382.562,757.712 377.5,767.5C 376.957,767.44 376.624,767.107 376.5,766.5C 380.974,756.215 386.474,746.548 393,737.5C 393.399,737.728 393.565,738.062 393.5,738.5 Z"/></g>
<g><path style="opacity:0.263" fill="#660603" d="M 65.5,754.5 C 67.0277,757.749 68.3611,761.082 69.5,764.5C 68.8826,764.611 68.3826,764.944 68,765.5C 66.9319,762.129 65.7653,758.796 64.5,755.5C 64.6236,754.893 64.9569,754.56 65.5,754.5 Z"/></g>
<g><path style="opacity:0.286" fill="#670402" d="M 35.5,779.5 C 33.1487,773.976 30.3153,768.643 27,763.5C 25.6476,760.28 24.8143,756.947 24.5,753.5C 26.3135,759.799 29.4801,766.132 34,772.5C 34.5573,774.615 35.3906,776.615 36.5,778.5C 36.3764,779.107 36.0431,779.44 35.5,779.5 Z"/></g>
<g><path style="opacity:0.498" fill="#550601" d="M 376.5,769.5 C 376.02,772.443 375.02,775.11 373.5,777.5C 373.105,774.468 373.938,771.468 376,768.5C 376.399,768.728 376.565,769.062 376.5,769.5 Z"/></g>
<g><path style="opacity:0.502" fill="#610402" d="M 1058.5,726.5 C 1056.72,729.374 1056.39,732.374 1057.5,735.5C 1065.45,739.391 1072.62,744.391 1079,750.5C 1091.14,771.843 1096.14,794.843 1094,819.5C 1092.96,820.71 1091.79,821.71 1090.5,822.5C 1090.06,822.565 1089.73,822.399 1089.5,822C 1090.67,820.833 1091.83,819.667 1093,818.5C 1093.67,812.833 1093.67,807.167 1093,801.5C 1092.25,782.456 1086.58,765.123 1076,749.5C 1069.31,744.325 1062.31,739.659 1055,735.5C 1055.32,732.191 1055.99,728.857 1057,725.5C 1057.38,726.056 1057.88,726.389 1058.5,726.5 Z"/></g>
<g><path style="opacity:0.38" fill="#4e0601" d="M 37.5,784.5 C 36.596,783.791 36.2627,782.791 36.5,781.5C 36.4346,781.062 36.6012,780.728 37,780.5C 38.298,781.946 38.4646,783.279 37.5,784.5 Z"/></g>
<g><path style="opacity:0.467" fill="#560702" d="M 373.5,779.5 C 371.46,784.896 369.46,790.229 367.5,795.5C 367.837,789.831 369.337,784.164 372,778.5C 372.383,779.056 372.883,779.389 373.5,779.5 Z"/></g>
<g><path style="opacity:0.282" fill="#620301" d="M 40.5,791.5 C 39.4625,790.07 38.7959,788.403 38.5,786.5C 39.8065,786.854 40.8065,788.188 41.5,790.5C 41.3764,791.107 41.0431,791.44 40.5,791.5 Z"/></g>
<g><path style="opacity:0.318" fill="#5b0702" d="M 43.5,798.5 C 42.0687,797.22 41.4021,795.553 41.5,793.5C 42.8065,793.854 43.8065,795.188 44.5,797.5C 44.3764,798.107 44.0431,798.44 43.5,798.5 Z"/></g>
<g><path style="opacity:0.384" fill="#610803" d="M 69.5,766.5 C 98.6134,838.036 141.613,900.036 198.5,952.5C 198.103,953.525 197.437,953.692 196.5,953C 139.804,900.752 97.1378,838.918 68.5,767.5C 68.6236,766.893 68.9569,766.56 69.5,766.5 Z"/></g>
<g><path style="opacity:0.224" fill="#570902" d="M 367.5,797.5 C 366.976,799.306 366.309,800.972 365.5,802.5C 364.903,802.265 364.57,801.765 364.5,801C 365,799.5 365.5,798 366,796.5C 366.383,797.056 366.883,797.389 367.5,797.5 Z"/></g>
<g><path style="opacity:0.267" fill="#6e0202" d="M 47.5,807.5 C 46.2638,805.351 45.2638,803.018 44.5,800.5C 46.1316,801.581 47.4649,803.581 48.5,806.5C 48.3764,807.107 48.0431,807.44 47.5,807.5 Z"/></g>
<g><path style="opacity:0.255" fill="#670803" d="M 1011.5,729.5 C 1011.61,730.117 1011.94,730.617 1012.5,731C 1001.18,735.248 991.682,742.082 984,751.5C 966,775.5 948,799.5 930,823.5C 922.479,832.53 913.646,839.864 903.5,845.5C 902.893,845.376 902.56,845.043 902.5,844.5C 913.313,837.866 922.813,829.532 931,819.5C 949.333,795.167 967.667,770.833 986,746.5C 993.1,738.702 1001.6,733.036 1011.5,729.5 Z"/></g>
<g><path style="opacity:0.2" fill="#710402" d="M 364.5,804.5 C 364.453,807.969 363.787,811.302 362.5,814.5C 361.876,814.083 361.543,813.416 361.5,812.5C 362.281,809.042 363.281,806.375 364.5,804.5 Z"/></g>
<g><path style="opacity:0.475" fill="#710103" d="M 1088.5,823.5 C 1082.2,824.268 1077.37,821.935 1074,816.5C 1071,811.5 1068,806.5 1065,801.5C 1061.76,803.075 1059.59,805.575 1058.5,809C 1063.2,819.262 1067.2,829.762 1070.5,840.5C 1066.39,831.51 1062.22,821.844 1058,811.5C 1057.33,809.833 1057.33,808.167 1058,806.5C 1059.67,803.5 1062,801.167 1065,799.5C 1068.83,804.497 1072.17,809.83 1075,815.5C 1078.34,820.41 1082.84,823.077 1088.5,823.5 Z"/></g>
<g><path style="opacity:0.282" fill="#660302" d="M 59.5,833.5 C 55.323,825.808 51.6564,817.808 48.5,809.5C 52.7685,816.326 56.7685,823.993 60.5,832.5C 60.3764,833.107 60.0431,833.44 59.5,833.5 Z"/></g>
<g><path style="opacity:0.431" fill="#5c0400" d="M 231.5,799.5 C 232.167,799.5 232.5,799.833 232.5,800.5C 232.036,821.999 231.369,843.332 230.5,864.5C 230.235,842.814 230.568,821.147 231.5,799.5 Z"/></g>
<g><path style="opacity:0.451" fill="#5c0702" d="M 362.5,816.5 C 360.515,824.07 358.848,831.737 357.5,839.5C 357.431,831.553 358.597,823.553 361,815.5C 361.383,816.056 361.883,816.389 362.5,816.5 Z"/></g>
<g><path style="opacity:0.298" fill="#5c0902" d="M 546.5,854.5 C 542.888,853.688 539.554,852.355 536.5,850.5C 536.56,849.957 536.893,849.624 537.5,849.5C 540.796,850.765 544.129,851.932 547.5,853C 546.944,853.383 546.611,853.883 546.5,854.5 Z"/></g>
<g><path style="opacity:0.357" fill="#4f0801" d="M 548.5,854.5 C 548.735,853.903 549.235,853.57 550,853.5C 572.438,860.252 595.271,862.086 618.5,859C 630.494,857.101 642.494,855.268 654.5,853.5C 673.292,853.485 689.958,859.318 704.5,871C 717.729,883.733 731.062,896.233 744.5,908.5C 743.833,908.5 743.5,908.833 743.5,909.5C 728.054,895.228 712.388,881.061 696.5,867C 681.197,857.348 664.53,853.682 646.5,856C 630.245,859.976 613.745,861.809 597,861.5C 580.357,862.15 564.19,859.816 548.5,854.5 Z"/></g>
<g><path style="opacity:0.231" fill="#780103" d="M 1071.5,842.5 C 1074.15,850.257 1077.32,857.924 1081,865.5C 1088.33,875.5 1095.67,885.5 1103,895.5C 1108.67,899.5 1114.33,903.5 1120,907.5C 1126.49,916.811 1131.66,926.811 1135.5,937.5C 1135.17,937.5 1134.83,937.5 1134.5,937.5C 1130.38,927.256 1125.21,917.59 1119,908.5C 1114.26,904.544 1109.09,901.21 1103.5,898.5C 1095.86,887.693 1088.03,877.026 1080,866.5C 1075.78,858.648 1072.94,850.648 1071.5,842.5 Z"/></g>
<g><path style="opacity:0.498" fill="#460800" d="M 235.5,926.5 C 233.254,907.23 231.587,887.897 230.5,868.5C 231.117,868.389 231.617,868.056 232,867.5C 232.881,886.052 234.381,904.552 236.5,923C 236.486,924.385 236.152,925.551 235.5,926.5 Z"/></g>
<g><path style="opacity:0.392" fill="#6f0403" d="M 272.5,1048.5 C 263.42,1044.79 254.753,1040.29 246.5,1035C 191.222,1000.07 143.055,956.904 102,905.5C 85.3325,883.829 71.4992,860.496 60.5,835.5C 78.6809,871.978 101.848,905.644 130,936.5C 172.627,981.439 220.127,1018.77 272.5,1048.5 Z"/></g>
<g><path style="opacity:1" fill="#fe0000" d="M 565.5,927.5 C 566.167,927.5 566.833,927.5 567.5,927.5C 567.389,928.117 567.056,928.617 566.5,929C 583.511,934.677 595.344,945.844 602,962.5C 602.383,961.944 602.883,961.611 603.5,961.5C 603.5,962.167 603.5,962.833 603.5,963.5C 602.903,963.735 602.57,964.235 602.5,965C 605.59,976.726 604.923,988.226 600.5,999.5C 600.624,1000.11 600.957,1000.44 601.5,1000.5C 601.672,1001.49 601.338,1002.16 600.5,1002.5C 600.19,1001.26 599.69,1001.26 599,1002.5C 589.081,1021.3 573.415,1030.97 552,1031.5C 535.224,1031.13 521.557,1024.47 511,1011.5C 508.306,1007.27 505.806,1003.61 503.5,1000.5C 502.662,1000.16 502.328,999.492 502.5,998.5C 503.043,998.44 503.376,998.107 503.5,997.5C 502.902,996.205 502.402,994.872 502,993.5C 501.617,994.056 501.117,994.389 500.5,994.5C 500.5,993.833 500.5,993.167 500.5,992.5C 496.889,968.502 504.889,949.335 524.5,935C 528.935,932.449 533.601,930.449 538.5,929C 547.649,927.529 556.649,927.029 565.5,927.5 Z"/></g>
<g><path style="opacity:0.537" fill="#4a0701" d="M 357.5,841.5 C 349.52,885.274 351.187,928.607 362.5,971.5C 361.883,971.611 361.383,971.944 361,972.5C 352.255,940.048 349.255,907.048 352,873.5C 352.822,862.437 354.155,851.437 356,840.5C 356.383,841.056 356.883,841.389 357.5,841.5 Z"/></g>
<g><path style="opacity:0.251" fill="#510902" d="M 565.5,927.5 C 556.649,927.029 547.649,927.529 538.5,929C 533.601,930.449 528.935,932.449 524.5,935C 504.889,949.335 496.889,968.502 500.5,992.5C 495.088,963.157 505.755,941.991 532.5,929C 543.505,925.162 554.505,924.662 565.5,927.5 Z"/></g>
<g><path style="opacity:0.482" fill="#530902" d="M 567.5,927.5 C 584.948,932.945 596.948,944.278 603.5,961.5C 602.883,961.611 602.383,961.944 602,962.5C 595.344,945.844 583.511,934.677 566.5,929C 567.056,928.617 567.389,928.117 567.5,927.5 Z"/></g>
<g><path style="opacity:0.569" fill="#660703" d="M 743.5,909.5 C 743.5,908.833 743.833,908.5 744.5,908.5C 778.207,939.543 812.207,970.21 846.5,1000.5C 837.809,1010.37 827.809,1018.53 816.5,1025C 792.525,1042.66 767.858,1059.32 742.5,1075C 733.326,1083.57 722.993,1089.4 711.5,1092.5C 717.641,1088.37 724.308,1084.87 731.5,1082C 733.871,1079.29 736.537,1076.96 739.5,1075C 756.167,1064.33 772.833,1053.67 789.5,1043C 801.245,1034.25 813.245,1025.91 825.5,1018C 832.009,1012.32 838.343,1006.49 844.5,1000.5C 832.02,990.187 819.686,979.687 807.5,969C 786.323,948.989 764.99,929.156 743.5,909.5 Z"/></g>
<g><path style="opacity:0.324" fill="#560702" d="M 1134.5,937.5 C 1134.83,937.5 1135.17,937.5 1135.5,937.5C 1135.83,937.5 1136.17,937.5 1136.5,937.5C 1136.5,941.167 1136.5,944.833 1136.5,948.5C 1134.67,950.936 1132.17,952.27 1129,952.5C 1125.52,951.964 1122.19,950.964 1119,949.5C 1117.83,950.009 1117,950.842 1116.5,952C 1117.46,955.216 1118.63,958.382 1120,961.5C 1122.34,971.815 1118.34,977.815 1108,979.5C 1104.01,978.938 1100.18,977.938 1096.5,976.5C 1096.74,975.903 1097.24,975.57 1098,975.5C 1103.05,977.288 1108.21,977.788 1113.5,977C 1117.42,974.584 1119.42,971.084 1119.5,966.5C 1117.54,960.621 1116.2,954.621 1115.5,948.5C 1121.11,949.759 1126.77,950.259 1132.5,950C 1135.55,946.246 1136.22,942.08 1134.5,937.5 Z"/></g>
<g><path style="opacity:0.537" fill="#500701" d="M 240.5,954.5 C 238.347,945.964 236.681,937.297 235.5,928.5C 236.117,928.389 236.617,928.056 237,927.5C 238.082,935.909 239.582,944.243 241.5,952.5C 241.457,953.416 241.124,954.083 240.5,954.5 Z"/></g>
<g><path style="opacity:0.396" fill="#650803" d="M 200.5,954.5 C 215.769,969.548 232.602,982.548 251,993.5C 250.506,990.815 249.673,988.148 248.5,985.5C 249.117,985.389 249.617,985.056 250,984.5C 251.167,988 252.333,991.5 253.5,995C 253.15,996.257 252.483,996.591 251.5,996C 240.5,988.5 229.5,981 218.5,973.5C 211.431,967.452 205.431,961.119 200.5,954.5 Z"/></g>
<g><path style="opacity:0.494" fill="#370800" d="M 241.5,959.5 C 240.596,958.791 240.263,957.791 240.5,956.5C 242.783,955.924 243.117,956.924 241.5,959.5 Z"/></g>
<g><path style="opacity:0.51" fill="#460600" d="M 243.5,966.5 C 242.715,964.626 242.048,962.626 241.5,960.5C 242.117,960.389 242.617,960.056 243,959.5C 243.422,961.355 243.922,963.189 244.5,965C 244.43,965.765 244.097,966.265 243.5,966.5 Z"/></g>
<g><path style="opacity:0.443" fill="#530801" d="M 1072.5,971.5 C 1070.37,970.952 1068.37,970.285 1066.5,969.5C 1066.74,968.903 1067.24,968.57 1068,968.5C 1069.81,969.078 1071.64,969.578 1073.5,970C 1072.94,970.383 1072.61,970.883 1072.5,971.5 Z"/></g>
<g><path style="opacity:0.271" fill="#5d0602" d="M 246.5,977.5 C 245.36,974.632 244.36,971.632 243.5,968.5C 244.117,968.389 244.617,968.056 245,967.5C 245.631,970.393 246.464,973.226 247.5,976C 247.43,976.765 247.097,977.265 246.5,977.5 Z"/></g>
<g><path style="opacity:0.439" fill="#4b0701" d="M 1074.5,971.5 C 1074.92,970.876 1075.58,970.543 1076.5,970.5C 1081.46,971.824 1086.46,972.991 1091.5,974C 1093.93,974.075 1094.6,974.908 1093.5,976.5C 1087.22,974.709 1080.89,973.043 1074.5,971.5 Z"/></g>
<g><path style="opacity:0.495" fill="#4a0801" d="M 603.5,963.5 C 607.557,976.132 606.89,988.465 601.5,1000.5C 600.957,1000.44 600.624,1000.11 600.5,999.5C 604.923,988.226 605.59,976.726 602.5,965C 602.57,964.235 602.903,963.735 603.5,963.5 Z"/></g>
<g><path style="opacity:0.424" fill="#500902" d="M 248.5,984.5 C 247.691,982.972 247.024,981.306 246.5,979.5C 247.117,979.389 247.617,979.056 248,978.5C 249.241,980.548 249.408,982.548 248.5,984.5 Z"/></g>
<g><path style="opacity:0.141" fill="#760303" d="M 1064.5,969.5 C 1055.43,966.977 1046.43,964.144 1037.5,961C 1030.43,957.262 1024.59,952.096 1020,945.5C 1013.67,935.5 1007.33,925.5 1001,915.5C 981.67,948.158 960.003,979.158 936,1008.5C 927.979,1017.19 918.813,1024.36 908.5,1030C 894.486,1030.72 881.82,1026.89 870.5,1018.5C 852.08,1035.2 832.747,1050.7 812.5,1065C 795.95,1074.53 779.617,1084.53 763.5,1095C 754.532,1099.82 745.532,1104.65 736.5,1109.5C 711.34,1144.33 678.674,1169.33 638.5,1184.5C 649.408,1179.2 660.741,1173.37 672.5,1167C 697.54,1151.65 718.54,1131.98 735.5,1108C 764.023,1092.91 791.69,1076.58 818.5,1059C 836.338,1046.5 853.004,1032.5 868.5,1017C 869.5,1016.33 870.5,1016.33 871.5,1017C 876.723,1020.78 882.39,1023.78 888.5,1026C 895.318,1029.17 902.318,1029.84 909.5,1028C 921.826,1021.01 932.326,1011.85 941,1000.5C 962.978,972.554 982.978,943.22 1001,912.5C 1008.97,926.27 1017.8,939.437 1027.5,952C 1031.83,955.499 1036.49,958.499 1041.5,961C 1049.44,963.536 1057.44,965.869 1065.5,968C 1064.94,968.383 1064.61,968.883 1064.5,969.5 Z"/></g>
<g><path style="opacity:0.184" fill="#740804" d="M 502.5,998.5 C 501.655,997.329 500.989,995.995 500.5,994.5C 501.117,994.389 501.617,994.056 502,993.5C 502.402,994.872 502.902,996.205 503.5,997.5C 503.376,998.107 503.043,998.44 502.5,998.5 Z"/></g>
<g><path style="opacity:0.588" fill="#580802" d="M 600.5,1002.5 C 590.911,1022.32 574.911,1032.65 552.5,1033.5C 535.378,1033.14 521.378,1026.47 510.5,1013.5C 507.662,1009.36 505.329,1005.02 503.5,1000.5C 505.806,1003.61 508.306,1007.27 511,1011.5C 521.557,1024.47 535.224,1031.13 552,1031.5C 573.415,1030.97 589.081,1021.3 599,1002.5C 599.69,1001.26 600.19,1001.26 600.5,1002.5 Z"/></g>
<g><path style="opacity:0.596" fill="#460000" d="M 274.5,1048.5 C 276.543,1047.77 278.543,1048.27 280.5,1050C 278.428,1050.04 276.428,1049.54 274.5,1048.5 Z"/></g>
<g><path style="opacity:0.49" fill="#600803" d="M 362.5,973.5 C 381.318,1035.98 420.985,1079.32 481.5,1103.5C 481.44,1104.04 481.107,1104.38 480.5,1104.5C 420.162,1080.33 380.495,1037.16 361.5,975C 361.57,974.235 361.903,973.735 362.5,973.5 Z"/></g>
<g><path style="opacity:0.6" fill="#420700" d="M 709.5,1092.5 C 710.953,1093.82 710.619,1094.66 708.5,1095C 707,1095.5 705.5,1096 704,1096.5C 703.235,1096.43 702.735,1096.1 702.5,1095.5C 704.751,1094.31 707.085,1093.31 709.5,1092.5 Z"/></g>
<g><path style="opacity:0.545" fill="#450600" d="M 700.5,1095.5 C 701.385,1097.27 700.552,1098.27 698,1098.5C 697.235,1098.43 696.735,1098.1 696.5,1097.5C 697.833,1096.83 699.167,1096.17 700.5,1095.5 Z"/></g>
<g><path style="opacity:0.541" fill="#4c0601" d="M 694.5,1097.5 C 694.611,1098.12 694.944,1098.62 695.5,1099C 689.356,1100.91 683.19,1102.74 677,1104.5C 676.235,1104.43 675.735,1104.1 675.5,1103.5C 681.743,1101.51 688.076,1099.51 694.5,1097.5 Z"/></g>
<g><path style="opacity:0.482" fill="#3d0700" d="M 673.5,1103.5 C 673.611,1104.12 673.944,1104.62 674.5,1105C 673.251,1105.74 672.251,1105.57 671.5,1104.5C 671.842,1103.66 672.508,1103.33 673.5,1103.5 Z"/></g>
<g><path style="opacity:0.384" fill="#510902" d="M 483.5,1103.5 C 486.984,1104.66 490.317,1105.99 493.5,1107.5C 493.265,1108.1 492.765,1108.43 492,1108.5C 488.779,1107.47 485.612,1106.31 482.5,1105C 483.056,1104.62 483.389,1104.12 483.5,1103.5 Z"/></g>
<g><path style="opacity:0.208" fill="#5e0702" d="M 495.5,1107.5 C 499.875,1109.01 504.209,1110.34 508.5,1111.5C 503.824,1111.69 499.158,1110.86 494.5,1109C 495.056,1108.62 495.389,1108.12 495.5,1107.5 Z"/></g>
<g><path style="opacity:0.318" fill="#590400" d="M 510.5,1111.5 C 511.391,1112.11 512.391,1112.44 513.5,1112.5C 512.399,1113.6 511.066,1113.76 509.5,1113C 510.056,1112.62 510.389,1112.12 510.5,1111.5 Z"/></g>
<g><path style="opacity:0.452" fill="#470700" d="M 669.5,1104.5 C 669.611,1105.12 669.944,1105.62 670.5,1106C 619.046,1120.22 567.046,1122.88 514.5,1114C 515.056,1113.62 515.389,1113.12 515.5,1112.5C 567.426,1121.26 618.76,1118.59 669.5,1104.5 Z"/></g>
<g><path style="opacity:0.263" fill="#720403" d="M 435.5,1172.5 C 375.63,1150.12 326.464,1113.46 288,1062.5C 283.601,1058.59 279.101,1054.92 274.5,1051.5C 275.117,1051.39 275.617,1051.06 276,1050.5C 279.528,1053.69 283.361,1056.52 287.5,1059C 304.047,1082.55 323.714,1103.22 346.5,1121C 374.509,1141.97 404.176,1159.14 435.5,1172.5 Z"/></g>
<g><path style="opacity:0.243" fill="#5a0602" d="M 451.5,1178.5 C 446.466,1177.6 441.799,1175.94 437.5,1173.5C 437.56,1172.96 437.893,1172.62 438.5,1172.5C 443.65,1174.25 447.983,1176.25 451.5,1178.5 Z"/></g>
<g><path style="opacity:0.22" fill="#690403" d="M 453.5,1179.5 C 453.56,1178.96 453.893,1178.62 454.5,1178.5C 463.354,1181.8 472.354,1184.63 481.5,1187C 480.944,1187.38 480.611,1187.88 480.5,1188.5C 471.44,1185.65 462.44,1182.65 453.5,1179.5 Z"/></g>
<g><path style="opacity:0.4" fill="#570602" d="M 636.5,1185.5 C 631.326,1187.67 625.992,1189.67 620.5,1191.5C 620.389,1190.88 620.056,1190.38 619.5,1190C 624.871,1188.27 630.204,1186.43 635.5,1184.5C 636.107,1184.62 636.44,1184.96 636.5,1185.5 Z"/></g>
<g><path style="opacity:0.337" fill="#500401" d="M 482.5,1188.5 C 482.735,1187.9 483.235,1187.57 484,1187.5C 499.315,1191.56 514.815,1194.73 530.5,1197C 559.789,1200.59 588.623,1198.42 617,1190.5C 617.765,1190.57 618.265,1190.9 618.5,1191.5C 605.919,1195.04 593.252,1197.7 580.5,1199.5C 565.833,1199.5 551.167,1199.5 536.5,1199.5C 518.287,1197.35 500.287,1193.68 482.5,1188.5 Z"/></g>
</svg>
